<?xml version="1.0" standalone="no"?>
<!DOCTYPE svg PUBLIC "-//W3C//DTD SVG 20010904//EN"
 "http://www.w3.org/TR/2001/REC-SVG-20010904/DTD/svg10.dtd">
<svg version="1.0" xmlns="http://www.w3.org/2000/svg"
 width="7868.000000pt" height="829.000000pt" viewBox="0 0 7868.000000 829.000000"
 preserveAspectRatio="xMidYMid meet">

<g transform="translate(0.000000,829.000000) scale(0.100000,-0.100000)"
fill="#000000" stroke="none">
<path d="M0 4145 l0 -4145 39340 0 39340 0 0 4145 0 4145 -39340 0 -39340 0 0
-4145z m6750 258 l2239 -3858 -4486 -3 c-2468 -1 -4488 0 -4490 2 -2 2 4390
7591 4474 7729 3 5 10 4 15 -1 6 -6 1017 -1746 2248 -3869z m46700 1312 c745
-2103 768 -2163 866 -2260 45 -46 101 -73 166 -83 l53 -7 3 -53 3 -53 -243 8
c-309 10 -751 10 -1075 0 l-253 -8 0 54 0 54 78 6 c134 10 224 57 251 130 31
81 9 165 -203 772 l-164 470 -564 3 -564 2 -163 -444 c-238 -651 -234 -638
-235 -731 -1 -68 2 -85 22 -112 32 -45 99 -74 205 -87 l92 -11 3 -54 3 -53
-173 8 c-217 11 -638 11 -825 1 l-143 -8 0 54 0 54 50 6 c109 13 205 94 278
234 66 128 174 385 858 2043 360 872 658 1588 662 1592 10 10 382 77 416 75
l29 -2 567 -1600z m-16733 1540 c710 -94 1220 -458 1468 -1050 115 -274 165
-547 165 -903 0 -313 -35 -545 -119 -795 -102 -304 -235 -521 -451 -737 -146
-146 -266 -234 -440 -324 -306 -157 -581 -223 -971 -233 -230 -6 -376 4 -559
38 -875 165 -1409 773 -1491 1699 -14 163 -6 471 16 620 119 790 571 1355
1270 1588 181 61 356 94 605 116 86 8 390 -4 507 -19z m41208 4 c153 -11 423
-43 430 -51 3 -3 0 -72 -5 -154 -6 -86 -8 -247 -4 -381 l7 -233 -62 0 c-41 0
-63 4 -65 13 -2 6 -8 39 -15 72 -29 156 -141 300 -291 373 -151 74 -212 86
-465 86 -201 1 -227 -1 -300 -22 -206 -60 -333 -179 -380 -357 -24 -93 -20
-274 8 -356 46 -135 131 -238 290 -350 40 -28 230 -145 422 -260 396 -237 490
-303 626 -438 151 -152 229 -289 281 -496 20 -79 22 -116 23 -305 0 -191 -3
-225 -23 -303 -49 -196 -134 -348 -262 -476 -200 -198 -502 -324 -890 -371
-357 -43 -916 -2 -1231 90 l-66 20 -6 312 c-4 172 -10 343 -13 381 l-7 67 65
0 64 0 22 -97 c47 -206 134 -324 304 -408 141 -70 245 -89 488 -89 200 -1 253
6 380 46 202 64 337 198 396 394 23 74 25 273 5 354 -33 136 -114 253 -248
360 -45 36 -231 159 -415 273 -183 114 -376 238 -428 275 -132 92 -322 285
-383 388 -163 274 -195 678 -79 977 51 131 106 213 216 322 211 209 494 321
901 355 118 10 512 4 710 -11z m-65909 -26 l1301 -5 7 -366 c3 -202 8 -378 9
-392 2 -24 -1 -25 -60 -28 l-62 -3 -5 38 c-25 166 -68 267 -143 333 -52 46
-143 91 -217 109 -76 19 -332 30 -663 31 l-303 0 0 -741 0 -741 378 5 c230 3
398 10 431 17 186 40 302 166 333 363 l12 77 60 0 61 0 0 -595 0 -595 -60 0
-61 0 -12 69 c-27 158 -91 255 -205 311 -115 56 -165 62 -569 67 l-368 5 0
-618 c0 -822 11 -953 85 -1050 59 -77 183 -129 336 -142 l84 -7 3 -59 3 -59
-173 7 c-673 26 -934 26 -1445 0 l-133 -7 0 55 0 55 51 6 c67 8 165 54 219
103 53 48 94 132 112 227 10 58 13 370 13 1572 0 1406 -1 1505 -18 1576 -20
86 -59 154 -109 192 -51 39 -140 77 -197 84 l-51 6 0 60 0 59 28 -7 c15 -4
612 -9 1328 -12z m2403 -3 c316 -10 781 -4 1141 13 l35 2 0 -55 0 -55 -55 -8
c-160 -23 -279 -131 -317 -287 -28 -115 -34 -450 -30 -1505 4 -1154 4 -1152
67 -1348 107 -334 387 -497 850 -497 473 0 755 169 868 520 59 182 57 132 57
1495 0 979 -3 1265 -13 1320 -16 89 -53 165 -99 206 -50 43 -149 88 -212 96
l-51 6 0 59 0 59 43 -5 c144 -19 618 -27 934 -15 186 6 352 12 368 13 30 1 30
1 30 -54 l0 -55 -55 -8 c-115 -16 -233 -95 -280 -186 -62 -123 -70 -281 -70
-1447 0 -937 -5 -1087 -40 -1277 -91 -482 -393 -794 -898 -927 -412 -109
-1052 -102 -1467 16 -483 137 -758 454 -840 966 -27 173 -35 474 -35 1463 0
1038 -2 1092 -50 1202 -12 29 -40 69 -62 89 -52 47 -151 93 -217 101 l-51 6 0
59 0 59 43 -5 c23 -3 206 -11 406 -16z m8480 0 c316 -10 781 -4 1141 13 l35 2
0 -55 0 -55 -55 -8 c-160 -23 -279 -131 -317 -287 -28 -115 -34 -450 -30
-1505 4 -1154 4 -1152 67 -1348 107 -334 387 -497 850 -497 473 0 755 169 868
520 59 182 57 132 57 1495 0 979 -3 1265 -13 1320 -16 89 -53 165 -99 206 -50
43 -149 88 -212 96 l-51 6 0 59 0 59 43 -5 c144 -19 618 -27 934 -15 186 6
352 12 368 13 30 1 30 1 30 -54 l0 -55 -55 -8 c-115 -16 -233 -95 -280 -186
-62 -123 -70 -281 -70 -1447 0 -937 -5 -1087 -40 -1277 -91 -482 -393 -794
-898 -927 -412 -109 -1052 -102 -1467 16 -483 137 -758 454 -840 966 -27 173
-35 474 -35 1463 0 1038 -2 1092 -50 1202 -12 29 -40 69 -62 89 -52 47 -151
93 -217 101 l-51 6 0 59 0 59 43 -5 c23 -3 206 -11 406 -16z m4801 3 c203 -4
519 -1 796 7 653 18 922 -2 1170 -85 377 -126 599 -357 680 -710 28 -121 25
-367 -6 -495 -95 -395 -347 -659 -764 -798 l-86 -29 563 -649 c603 -696 813
-920 940 -1002 85 -55 165 -89 233 -99 l44 -6 0 -52 0 -53 -37 -6 c-21 -3
-198 -9 -393 -12 -304 -6 -371 -4 -470 10 -223 33 -388 108 -525 241 -39 39
-136 151 -215 250 -188 237 -648 851 -780 1042 l-105 152 -128 0 -129 1 5
-592 c5 -632 10 -695 57 -793 41 -85 145 -154 264 -177 l66 -13 0 -53 0 -53
-252 8 c-323 10 -773 10 -1095 0 l-253 -8 0 54 0 54 51 6 c67 8 165 54 219
103 53 48 94 132 112 227 10 58 13 370 13 1572 0 1406 -1 1505 -18 1576 -20
86 -59 154 -109 192 -51 39 -140 77 -197 84 l-51 6 0 60 0 60 31 -7 c18 -3
183 -9 369 -13z m4559 -3 c316 -10 781 -4 1141 13 l35 2 0 -55 0 -55 -54 -7
c-115 -14 -241 -100 -287 -196 -62 -131 -66 -253 -61 -1832 4 -1452 3 -1434
57 -1545 41 -85 145 -154 264 -177 l66 -13 0 -53 0 -54 -257 9 c-328 10 -785
10 -1115 0 l-258 -8 0 54 0 54 51 6 c67 8 165 54 219 103 53 48 94 132 112
227 10 58 13 370 13 1572 0 1406 -1 1505 -18 1576 -20 86 -59 154 -109 192
-51 39 -140 77 -197 84 l-51 6 0 59 0 59 43 -5 c23 -3 206 -11 406 -16z m7376
0 c260 -10 737 -1 810 15 11 2 25 1 31 -3 15 -10 1778 -2360 1844 -2457 30
-44 64 -98 77 -120 l23 -40 0 965 c0 1011 -6 1192 -41 1305 -36 119 -134 199
-280 229 l-64 13 0 54 c0 51 1 54 25 53 393 -22 657 -26 870 -15 129 7 244 13
255 14 18 2 20 -4 20 -53 l0 -55 -55 -8 c-74 -10 -169 -56 -219 -106 -86 -86
-108 -167 -121 -436 -5 -110 -10 -908 -10 -1773 l0 -1572 -172 2 -172 3 -1149
1525 c-632 839 -1180 1572 -1218 1630 l-70 105 4 -1390 c3 -1502 2 -1457 55
-1562 44 -85 144 -152 267 -177 l60 -12 3 -53 3 -53 -178 8 c-224 11 -685 12
-865 1 l-138 -8 0 54 0 54 51 6 c67 8 165 54 219 103 53 48 94 132 112 227 10
58 13 370 13 1572 0 1406 -1 1505 -18 1576 -20 86 -59 154 -109 192 -51 39
-140 77 -197 84 l-51 6 0 59 0 59 48 -6 c26 -3 177 -10 337 -15z m8735 5 c939
-1 984 -2 1200 -36 323 -50 605 -201 762 -408 139 -184 205 -455 179 -731 -59
-620 -475 -982 -1197 -1041 -157 -12 -349 -2 -474 27 l-71 16 3 59 3 60 135 3
c153 3 228 19 330 71 125 63 206 149 275 290 76 156 105 313 105 568 0 343
-64 551 -215 702 -80 80 -158 123 -280 157 -70 19 -106 22 -295 22 -118 1
-227 -2 -242 -7 l-28 -7 0 -1544 c0 -1003 4 -1580 10 -1646 18 -170 65 -261
170 -329 69 -45 144 -68 277 -84 l98 -12 3 -53 3 -53 -313 8 c-393 10 -1067
10 -1300 0 l-178 -7 0 54 0 53 51 6 c67 8 165 54 219 103 53 48 94 132 112
227 10 58 13 370 13 1572 0 1406 -1 1505 -18 1576 -20 86 -59 154 -109 192
-51 39 -140 77 -197 84 l-51 6 0 60 0 59 38 -8 c20 -5 462 -9 982 -9z m7190
-2 c203 -4 519 -1 796 7 653 18 922 -2 1170 -85 377 -126 599 -357 680 -710
28 -121 25 -367 -6 -495 -95 -395 -347 -659 -764 -798 l-86 -29 563 -649 c603
-696 813 -920 940 -1002 85 -55 165 -89 233 -99 l44 -6 0 -52 0 -53 -37 -6
c-21 -3 -198 -9 -393 -12 -304 -6 -371 -4 -470 10 -223 33 -388 108 -525 241
-39 39 -136 151 -215 250 -188 237 -648 851 -780 1042 l-105 152 -128 0 -129
1 5 -592 c5 -632 10 -695 57 -793 41 -85 145 -154 264 -177 l66 -13 0 -53 0
-53 -252 8 c-323 10 -773 10 -1095 0 l-253 -8 0 54 0 54 51 6 c67 8 165 54
219 103 53 48 94 132 112 227 10 58 13 370 13 1572 0 1406 -1 1505 -18 1576
-20 86 -59 154 -109 192 -51 39 -140 77 -197 84 l-51 6 0 60 0 60 31 -7 c18
-3 183 -9 369 -13z m7815 -3 c260 -10 737 -1 810 15 11 2 25 1 31 -3 15 -10
1778 -2360 1844 -2457 30 -44 64 -98 77 -120 l23 -40 0 965 c0 1011 -6 1192
-41 1305 -36 119 -134 199 -280 229 l-64 13 0 54 c0 51 1 54 25 53 393 -22
657 -26 870 -15 129 7 244 13 255 14 18 2 20 -4 20 -53 l0 -55 -55 -8 c-74
-10 -169 -56 -219 -106 -86 -86 -108 -167 -121 -436 -5 -110 -10 -908 -10
-1773 l0 -1572 -172 2 -172 3 -1149 1525 c-632 839 -1180 1572 -1218 1630
l-70 105 4 -1390 c3 -1502 2 -1457 55 -1562 44 -85 144 -152 267 -177 l60 -12
3 -53 3 -53 -178 8 c-224 11 -685 12 -865 1 l-138 -8 0 54 0 54 51 6 c67 8
165 54 219 103 53 48 94 132 112 227 10 58 13 370 13 1572 0 1406 -1 1505 -18
1576 -20 86 -59 154 -109 192 -51 39 -140 77 -197 84 l-51 6 0 59 0 59 48 -6
c26 -3 177 -10 337 -15z m5741 3 l1301 -5 7 -366 c3 -202 8 -378 9 -392 2 -24
-1 -25 -60 -28 l-62 -3 -5 38 c-25 166 -68 267 -143 333 -52 46 -143 91 -217
109 -76 19 -332 30 -663 31 l-303 0 0 -741 0 -741 378 5 c230 3 398 10 431 17
186 40 302 166 333 363 l12 77 60 0 61 0 0 -595 0 -595 -60 0 -61 0 -12 69
c-27 158 -91 255 -205 311 -115 56 -165 62 -570 67 l-368 5 3 -743 3 -744 25
-50 c45 -90 106 -105 430 -105 341 0 502 21 624 82 146 74 235 218 254 416 l7
67 61 3 62 3 -6 -423 c-2 -233 -5 -424 -6 -425 0 -1 -607 -3 -1349 -5 l-1347
-3 0 51 0 51 51 6 c67 8 165 54 219 103 53 48 94 132 112 227 10 58 13 370 13
1572 0 1406 -1 1505 -18 1576 -20 86 -59 154 -109 192 -51 39 -140 77 -197 84
l-51 6 0 60 0 59 28 -7 c15 -4 612 -9 1328 -12z m2724 0 c203 -4 519 -1 796 7
653 18 922 -2 1170 -85 377 -126 599 -357 680 -710 28 -121 25 -367 -6 -495
-95 -395 -347 -659 -764 -798 l-86 -29 563 -649 c603 -696 813 -920 940 -1002
85 -55 165 -89 233 -99 l44 -6 0 -52 0 -53 -37 -6 c-21 -3 -198 -9 -393 -12
-304 -6 -371 -4 -470 10 -223 33 -388 108 -525 241 -39 39 -136 151 -215 250
-188 237 -648 851 -780 1042 l-105 152 -128 0 -129 1 5 -592 c5 -632 10 -695
57 -793 41 -85 145 -154 264 -177 l66 -13 0 -53 0 -53 -252 8 c-323 10 -773
10 -1095 0 l-253 -8 0 54 0 54 51 6 c67 8 165 54 219 103 53 48 94 132 112
227 10 58 13 370 13 1572 0 1406 -1 1505 -18 1576 -20 86 -59 154 -109 192
-51 39 -140 77 -197 84 l-51 6 0 60 0 60 31 -7 c18 -3 183 -9 369 -13z
m-49995 -263 c2 -140 7 -317 11 -392 l6 -138 -61 0 c-41 0 -63 4 -65 13 -2 6
-9 46 -15 87 -15 95 -65 202 -122 259 -56 56 -166 109 -266 126 -46 9 -194 17
-366 21 l-288 7 4 -1609 c3 -1742 1 -1675 55 -1780 53 -103 180 -167 364 -182
l83 -7 3 -58 3 -58 -298 8 c-379 10 -894 10 -1275 0 l-298 -8 0 54 0 54 63 7
c197 20 341 96 396 209 57 118 55 40 58 1776 l4 1594 -288 -7 c-172 -4 -320
-12 -366 -21 -100 -17 -210 -70 -266 -126 -57 -57 -107 -164 -122 -259 -6 -41
-13 -81 -15 -87 -2 -9 -24 -13 -65 -13 l-62 0 7 118 c3 64 9 242 12 395 l7
277 1579 -2 1579 -3 4 -255z m40530 0 c2 -140 7 -317 11 -392 l6 -138 -61 0
c-41 0 -63 4 -65 13 -2 6 -9 46 -15 87 -15 95 -65 202 -122 259 -56 56 -166
109 -266 126 -46 9 -194 17 -366 21 l-288 7 4 -1609 c3 -1742 1 -1675 55
-1780 53 -103 180 -167 364 -182 l83 -7 3 -58 3 -58 -298 8 c-379 10 -894 10
-1275 0 l-298 -8 0 54 0 54 63 7 c197 20 341 96 396 209 57 118 55 40 58 1776
l4 1594 -288 -7 c-172 -4 -320 -12 -366 -21 -100 -17 -210 -70 -266 -126 -57
-57 -107 -164 -122 -259 -6 -41 -13 -81 -15 -87 -2 -9 -24 -13 -65 -13 l-62 0
7 118 c3 64 9 242 12 395 l7 277 1579 -2 1579 -3 4 -255z m-11345 -5710 l0
-621 25 -24 c13 -14 34 -25 47 -25 29 0 52 -15 45 -28 -4 -5 -39 -13 -79 -16
-73 -7 -140 -20 -171 -32 -15 -5 -17 1 -17 45 l0 51 -42 -30 c-153 -111 -393
-84 -512 57 -108 129 -122 364 -31 543 34 66 131 153 202 180 108 41 181 46
341 24 l42 -6 -1 143 c-1 240 -16 289 -90 289 -22 0 -29 5 -29 18 0 17 11 20
93 25 50 4 106 11 122 16 17 5 36 10 43 10 9 1 12 -129 12 -619z m4485 -4 c0
-618 0 -625 21 -653 12 -15 39 -34 62 -41 23 -8 42 -19 42 -25 0 -9 -55 -11
-202 -10 -202 2 -249 11 -170 32 21 6 49 22 63 37 l24 26 3 556 c2 391 -1 565
-9 583 -10 26 -40 44 -84 51 -11 2 -20 10 -20 18 0 12 20 17 88 22 48 4 102
12 120 17 68 19 62 74 62 -613z m-24589 46 c192 -246 357 -459 366 -472 16
-24 17 -4 17 375 1 245 -3 414 -9 437 -12 42 -52 78 -86 78 -16 0 -24 6 -24
18 0 16 14 17 170 14 141 -2 170 -5 170 -17 0 -9 -10 -15 -23 -15 -27 0 -62
-23 -79 -53 -10 -17 -14 -158 -18 -582 l-5 -560 -31 -3 c-30 -3 -44 14 -400
470 -203 260 -379 487 -391 503 l-23 30 3 -458 2 -459 24 -20 c14 -10 37 -22
53 -25 17 -3 28 -12 28 -22 0 -14 -19 -16 -167 -14 -105 2 -169 6 -171 13 -2
5 5 13 15 16 114 37 107 7 111 534 4 522 1 562 -38 602 -17 16 -39 28 -54 28
-18 0 -26 5 -26 18 0 15 11 17 119 14 l119 -3 348 -447z m3568 444 c58 -24 69
-107 18 -146 -30 -24 -89 -26 -120 -4 -54 38 -47 124 12 150 40 17 49 17 90 0z
m9810 0 c58 -24 69 -107 18 -146 -30 -24 -89 -26 -120 -4 -54 38 -47 124 12
150 40 17 49 17 90 0z m5390 0 c58 -24 69 -107 18 -146 -30 -24 -89 -26 -120
-4 -54 38 -47 124 12 150 40 17 49 17 90 0z m6550 0 c58 -24 69 -107 18 -146
-30 -24 -89 -26 -120 -4 -54 38 -47 124 12 150 40 17 49 17 90 0z m2650 0 c58
-24 69 -107 18 -146 -30 -24 -89 -26 -120 -4 -54 38 -47 124 12 150 40 17 49
17 90 0z m-19606 -113 c2 -94 0 -113 -12 -113 -8 0 -17 14 -21 33 -12 51 -33
85 -65 102 -23 12 -67 15 -205 15 l-175 0 0 -236 0 -235 166 3 166 3 29 33
c20 22 29 43 29 67 0 27 4 35 18 35 16 0 17 -15 17 -175 0 -160 -1 -175 -17
-175 -14 0 -18 8 -18 34 0 44 -32 83 -78 96 -20 5 -100 10 -176 10 l-139 0 5
-242 c4 -158 10 -252 18 -269 14 -31 45 -50 97 -58 22 -4 39 -13 41 -21 2 -13
-27 -15 -215 -13 -120 1 -219 6 -221 11 -1 5 18 17 43 26 82 32 80 17 83 536
2 250 0 479 -3 509 -8 63 -46 111 -89 111 -17 0 -26 6 -26 15 0 13 46 15 373
13 l372 -3 3 -112z m7560 0 c2 -94 0 -113 -12 -113 -8 0 -17 14 -21 33 -12 51
-33 85 -65 102 -23 12 -67 15 -205 15 l-175 0 0 -236 0 -235 166 3 166 3 29
33 c20 22 29 43 29 67 0 27 4 35 18 35 16 0 17 -15 17 -175 0 -160 -1 -175
-17 -175 -14 0 -18 8 -18 34 0 44 -32 83 -78 96 -20 5 -99 10 -175 10 l-139 0
4 -245 c3 -219 5 -246 21 -262 15 -16 37 -18 170 -18 107 0 162 4 185 14 38
16 72 73 72 121 0 23 5 30 19 30 17 0 18 -8 13 -117 -2 -65 -5 -119 -6 -120
-1 -1 -170 -3 -376 -3 -258 -1 -376 2 -378 9 -2 6 5 14 15 17 114 37 107 6
111 544 2 250 0 479 -3 509 -8 63 -46 111 -89 111 -17 0 -26 6 -26 15 0 13 46
15 373 13 l372 -3 3 -112z m-11578 -163 l0 -100 156 0 155 0 -3 -32 -3 -33
-152 -3 -153 -3 0 -292 c0 -265 2 -296 19 -334 11 -23 31 -49 44 -58 36 -23
122 -29 185 -12 52 14 53 14 50 -7 -5 -33 -100 -76 -184 -83 -136 -11 -226 38
-255 139 -9 31 -12 130 -11 346 l3 302 -61 0 c-33 0 -60 4 -60 9 0 5 25 23 55
40 55 31 106 88 157 175 45 76 58 63 58 -54z m5910 0 l0 -100 156 0 155 0 -3
-32 -3 -33 -152 -3 -153 -3 0 -292 c0 -265 2 -296 19 -334 11 -23 31 -49 44
-58 36 -23 122 -29 185 -12 52 14 53 14 50 -7 -5 -33 -100 -76 -184 -83 -136
-11 -226 38 -255 139 -9 31 -12 130 -11 346 l3 302 -61 0 c-33 0 -60 4 -60 9
0 5 25 23 55 40 55 31 106 88 157 175 45 76 58 63 58 -54z m18490 0 l0 -100
156 0 155 0 -3 -32 -3 -33 -152 -3 -153 -3 0 -292 c0 -265 2 -296 19 -334 11
-23 31 -49 44 -58 36 -23 122 -29 185 -12 52 14 53 14 50 -7 -5 -33 -100 -76
-184 -83 -136 -11 -226 38 -255 139 -9 31 -12 130 -11 346 l3 302 -61 0 c-33
0 -60 4 -60 9 0 5 25 23 55 40 55 31 106 88 157 175 45 76 58 63 58 -54z
m-27240 -80 c77 -15 152 -52 199 -99 163 -163 158 -505 -11 -674 -185 -185
-539 -137 -652 88 -68 137 -64 340 9 485 78 154 264 236 455 200z m3956 -15
c49 -20 80 -49 107 -100 21 -38 22 -55 25 -320 1 -154 4 -289 7 -301 6 -26 48
-46 80 -38 42 10 49 -5 18 -38 -35 -38 -81 -58 -132 -58 -57 0 -89 18 -108 61
l-16 38 -44 -38 c-93 -83 -265 -89 -355 -13 -87 73 -90 242 -7 319 56 51 190
83 353 83 l58 0 -3 113 c-3 89 -8 119 -24 146 -30 52 -67 74 -130 79 -70 6
-134 -17 -181 -66 -24 -25 -38 -32 -45 -25 -30 30 79 141 163 167 64 19 177
15 234 -9z m1097 8 l37 -6 0 -98 c0 -82 -3 -99 -15 -99 -9 0 -18 8 -21 18 -20
62 -39 91 -72 109 -118 65 -252 16 -252 -92 0 -82 18 -101 202 -209 112 -66
161 -117 178 -187 28 -115 -30 -229 -139 -275 -80 -33 -261 -35 -357 -4 l-34
12 0 104 c0 81 3 104 14 104 8 0 16 -16 20 -40 8 -52 62 -113 114 -128 94 -29
206 -1 236 57 9 16 16 50 16 75 0 62 -29 93 -182 192 -158 103 -198 155 -198
253 0 116 69 195 193 221 41 9 184 5 260 -7z m11482 -4 c62 -17 105 -40 105
-56 0 -19 -58 -103 -71 -103 -5 0 -28 20 -52 44 -50 53 -105 71 -191 63 -148
-13 -227 -154 -213 -381 13 -223 120 -337 316 -336 39 1 89 9 121 20 30 11 58
19 63 20 18 0 4 -31 -25 -56 -105 -88 -305 -106 -437 -39 -276 139 -257 649
30 795 92 47 242 59 354 29z m3056 1 c119 -32 199 -159 199 -315 l0 -55 -276
0 -277 0 6 -82 c9 -145 61 -238 160 -290 63 -32 210 -37 292 -10 69 24 91 15
57 -21 -47 -50 -182 -97 -277 -97 -163 1 -297 81 -351 210 -37 86 -47 256 -23
356 30 122 107 231 194 277 84 44 195 54 296 27z m2040 0 c119 -32 199 -159
199 -315 l0 -55 -276 0 -277 0 6 -82 c9 -145 61 -238 160 -290 63 -32 210 -37
292 -10 69 24 91 15 57 -21 -47 -50 -182 -97 -277 -97 -163 1 -297 81 -351
210 -37 86 -47 256 -23 356 30 122 107 231 194 277 84 44 195 54 296 27z
m3390 -5 c24 -9 63 -34 86 -57 l41 -40 39 30 c98 79 243 111 354 79 83 -25
120 -54 154 -122 l30 -60 5 -285 c6 -322 7 -329 81 -358 77 -30 48 -37 -156
-37 -160 0 -195 2 -193 14 2 7 18 19 37 25 19 6 44 24 55 39 20 27 21 40 21
290 0 255 -1 263 -23 310 -36 73 -93 102 -197 101 -68 0 -89 -5 -138 -29 -50
-25 -57 -32 -51 -49 4 -12 10 -149 13 -306 7 -322 8 -329 82 -358 77 -30 48
-37 -156 -37 -204 0 -233 7 -156 37 72 29 76 42 79 298 2 134 -1 251 -7 285
-12 65 -46 116 -94 142 -45 24 -177 24 -239 0 l-48 -19 0 -316 c0 -231 4 -324
13 -342 6 -14 31 -34 55 -45 23 -11 42 -26 42 -33 0 -9 -6 -12 -16 -8 -9 3
-96 6 -195 6 -177 0 -213 7 -145 30 60 19 77 48 88 147 13 115 6 541 -10 569
-11 21 -47 40 -87 46 -11 2 -20 10 -20 18 0 11 18 17 71 21 39 4 94 12 123 18
72 15 71 16 71 -34 0 -46 9 -56 29 -31 16 18 121 65 173 76 54 11 132 5 189
-15z m3360 5 c119 -32 199 -159 199 -315 l0 -55 -276 0 -277 0 6 -82 c9 -145
61 -238 160 -290 63 -32 210 -37 292 -10 69 24 91 15 57 -21 -47 -50 -182 -97
-277 -97 -163 1 -297 81 -351 210 -37 86 -47 256 -23 356 30 122 107 231 194
277 84 44 195 54 296 27z m1082 3 l37 -6 0 -98 c0 -82 -3 -99 -15 -99 -9 0
-18 8 -21 18 -20 62 -39 91 -72 109 -118 65 -252 16 -252 -92 0 -82 18 -101
202 -209 112 -66 161 -117 178 -187 28 -115 -30 -229 -139 -275 -80 -33 -261
-35 -357 -4 l-34 12 0 104 c0 81 3 104 14 104 8 0 16 -16 20 -40 8 -52 62
-113 114 -128 94 -29 206 -1 236 57 9 16 16 50 16 75 0 62 -29 93 -182 192
-158 103 -198 155 -198 253 0 116 69 195 193 221 41 9 184 5 260 -7z m-27358
-372 c0 -369 1 -380 21 -408 12 -15 39 -34 62 -41 25 -8 42 -20 42 -29 0 -10
-6 -13 -16 -9 -9 3 -101 6 -205 6 -188 0 -230 8 -151 30 21 5 49 21 63 36 l24
26 3 310 c2 217 0 320 -8 339 -11 26 -41 44 -85 51 -11 2 -20 10 -20 18 0 11
19 17 80 22 44 4 98 11 120 16 22 6 47 10 55 11 13 1 15 -47 15 -378z m5370
56 l0 -322 25 -50 c37 -75 87 -97 205 -93 55 3 105 10 128 20 l37 17 0 315 c0
301 -1 317 -20 336 -11 11 -32 22 -47 26 -48 10 -55 14 -51 27 3 7 35 15 84
19 43 3 99 11 124 17 25 6 50 11 55 11 6 0 10 -131 10 -375 0 -369 0 -375 21
-396 12 -11 37 -24 55 -28 20 -4 35 -14 37 -24 3 -14 -4 -17 -35 -17 -41 -1
-177 -24 -205 -35 -16 -6 -18 -1 -18 45 l0 52 -22 -16 c-187 -134 -438 -108
-512 54 -19 41 -21 70 -26 325 -4 198 -9 287 -18 302 -15 28 -43 43 -76 43
-19 0 -26 5 -26 20 0 18 7 20 58 20 31 1 86 7 122 14 36 8 72 14 80 15 13 1
15 -41 15 -322z m2170 0 l0 -322 25 -50 c37 -75 87 -97 205 -93 55 3 105 10
128 20 l37 17 0 315 c0 301 -1 317 -20 336 -11 11 -32 22 -47 26 -48 10 -55
14 -51 27 3 7 35 15 84 19 43 3 99 11 124 17 25 6 50 11 55 11 6 0 10 -131 10
-375 0 -369 0 -375 21 -396 12 -11 37 -24 55 -28 20 -4 35 -14 37 -24 3 -14
-4 -17 -35 -17 -41 -1 -177 -24 -205 -35 -16 -6 -18 -1 -18 45 l0 52 -22 -16
c-187 -134 -438 -108 -512 54 -19 41 -21 70 -26 325 -4 198 -9 287 -18 302
-15 28 -43 43 -76 43 -19 0 -26 5 -26 20 0 18 7 20 58 20 31 1 86 7 122 14 36
8 72 14 80 15 13 1 15 -41 15 -322z m1305 267 l0 -56 41 36 c43 39 66 51 135
66 49 11 126 -1 158 -25 19 -15 19 -16 -9 -75 -27 -57 -46 -73 -60 -50 -4 6
-25 20 -47 31 -33 17 -55 20 -108 17 -37 -2 -75 -10 -84 -17 -14 -12 -16 -49
-16 -317 0 -194 4 -312 11 -327 14 -31 43 -48 98 -56 31 -4 46 -11 46 -21 0
-8 -6 -15 -12 -14 -7 1 -105 2 -218 3 -117 0 -205 5 -205 10 0 5 15 14 34 21
60 19 77 48 88 147 13 115 6 541 -10 569 -11 21 -47 40 -87 46 -11 2 -20 10
-20 18 0 11 18 17 75 22 41 4 93 11 115 16 75 18 75 18 75 -44z m965 -323 c0
-369 1 -380 21 -408 12 -15 39 -34 62 -41 25 -8 42 -20 42 -29 0 -10 -6 -13
-16 -9 -9 3 -101 6 -205 6 -188 0 -230 8 -151 30 21 5 49 21 63 36 l24 26 3
310 c2 217 0 320 -8 339 -11 26 -41 44 -85 51 -11 2 -20 10 -20 18 0 11 19 17
80 22 44 4 98 11 120 16 22 6 47 10 55 11 13 1 15 -47 15 -378z m739 350 c16
-16 21 -34 21 -70 0 -82 -57 -123 -139 -100 -79 22 -90 148 -16 187 35 18 107
9 134 -17z m4651 -350 c0 -369 1 -380 21 -408 12 -15 39 -34 62 -41 25 -8 42
-20 42 -29 0 -10 -6 -13 -16 -9 -9 3 -101 6 -205 6 -188 0 -230 8 -151 30 21
5 49 21 63 36 l24 26 3 310 c2 217 0 320 -8 339 -11 26 -41 44 -85 51 -11 2
-20 10 -20 18 0 11 19 17 80 22 44 4 98 11 120 16 22 6 47 10 55 11 13 1 15
-47 15 -378z m3145 323 l0 -56 41 36 c43 39 66 51 135 66 49 11 126 -1 158
-25 19 -15 19 -16 -9 -75 -27 -57 -46 -73 -60 -50 -4 6 -25 20 -47 31 -33 17
-55 20 -108 17 -37 -2 -75 -10 -84 -17 -14 -12 -16 -49 -16 -317 0 -194 4
-312 11 -327 14 -31 43 -48 98 -56 31 -4 46 -11 46 -21 0 -8 -6 -15 -12 -14
-7 1 -105 2 -218 3 -117 0 -205 5 -205 10 0 5 15 14 34 21 60 19 77 48 88 147
13 115 6 541 -10 569 -11 21 -47 40 -87 46 -11 2 -20 10 -20 18 0 11 18 17 75
22 41 4 93 11 115 16 75 18 75 18 75 -44z m3405 -323 c0 -369 1 -380 21 -408
12 -15 39 -34 62 -41 25 -8 42 -20 42 -29 0 -10 -6 -13 -16 -9 -9 3 -101 6
-205 6 -188 0 -230 8 -151 30 21 5 49 21 63 36 l24 26 3 310 c2 217 0 320 -8
339 -11 26 -41 44 -85 51 -11 2 -20 10 -20 18 0 11 19 17 80 22 44 4 98 11
120 16 22 6 47 10 55 11 13 1 15 -47 15 -378z m2650 0 c0 -369 1 -380 21 -408
12 -15 39 -34 62 -41 25 -8 42 -20 42 -29 0 -10 -6 -13 -16 -9 -9 3 -101 6
-205 6 -188 0 -230 8 -151 30 21 5 49 21 63 36 l24 26 3 310 c2 217 0 320 -8
339 -11 26 -41 44 -85 51 -11 2 -20 10 -20 18 0 11 19 17 80 22 44 4 98 11
120 16 22 6 47 10 55 11 13 1 15 -47 15 -378z m-25525 353 c0 -6 -13 -14 -29
-17 -44 -9 -64 -35 -58 -74 3 -19 46 -138 95 -266 49 -128 94 -245 99 -261 8
-27 18 -7 112 225 59 144 106 274 108 301 5 44 4 47 -25 62 -17 9 -38 16 -47
16 -8 0 -15 6 -15 13 0 10 34 13 155 13 159 -1 189 -10 121 -34 -43 -16 -53
-36 -246 -467 -83 -187 -159 -346 -168 -353 -43 -33 -48 -23 -209 383 -121
307 -160 396 -184 418 -16 15 -36 27 -44 27 -8 0 -15 6 -15 13 0 9 41 12 175
13 127 0 175 -3 175 -12z m14170 1 c0 -5 -15 -17 -33 -25 -37 -17 -47 -54 -25
-93 19 -35 132 -186 139 -187 4 0 37 46 73 102 78 119 83 153 29 178 -61 28
-38 35 114 34 89 0 146 -4 144 -10 -2 -5 -20 -18 -39 -29 -23 -13 -81 -78
-158 -179 l-122 -159 147 -196 c155 -205 181 -234 219 -246 57 -17 5 -26 -166
-28 -188 -2 -216 4 -150 34 39 17 53 39 45 70 -3 13 -48 82 -100 152 l-94 128
-75 -118 c-93 -145 -98 -155 -98 -188 0 -21 8 -30 40 -43 22 -9 39 -21 37 -25
-4 -13 -307 -14 -307 -1 0 6 14 17 30 24 36 15 79 64 224 258 l107 143 -17 27
c-10 15 -70 97 -135 183 -86 114 -127 160 -153 173 -20 9 -35 20 -32 24 7 11
356 8 356 -3z m-2496 -684 c16 -16 21 -34 21 -70 0 -82 -57 -123 -139 -100
-79 22 -90 148 -16 187 35 18 107 9 134 -17z"/>
<path d="M4657 7378 c-16 -12 -17 -131 -15 -1973 l3 -1959 1680 -1068 c924
-588 1733 -1102 1797 -1143 113 -71 118 -73 138 -57 20 17 -4 59 -1774 3112
-987 1702 -1798 3096 -1803 3097 -5 2 -17 -2 -26 -9z"/>
<path d="M2495 4280 c-988 -1706 -1795 -3102 -1793 -3104 1 -1 10 -7 19 -14
14 -10 290 162 1815 1131 l1799 1144 0 1969 0 1969 -21 3 c-19 3 -251 -394
-1819 -3098z"/>
<path d="M4642 2705 l3 -398 95 -60 c52 -33 265 -163 472 -288 637 -387 856
-529 1163 -759 252 -189 348 -244 525 -304 202 -67 372 -85 871 -92 l397 -5 7
31 c4 17 5 33 3 34 -17 14 -3513 2229 -3524 2233 -12 4 -14 -51 -12 -392z"/>
<path d="M2573 1977 c-964 -612 -1752 -1115 -1752 -1118 -1 -11 279 -39 501
-49 152 -7 287 -8 423 -1 199 10 269 22 334 55 60 32 795 498 1804 1145 l457
294 0 394 c0 216 -3 393 -7 392 -5 0 -796 -501 -1760 -1112z"/>
<path d="M3580 1480 c-503 -325 -923 -597 -934 -603 -13 -9 -17 -19 -12 -35
l7 -22 1864 0 1864 0 6 21 c4 11 5 22 3 24 -9 8 -1862 1197 -1872 1201 -6 2
-423 -262 -926 -586z"/>
<path d="M52263 5992 c-73 -196 -184 -495 -247 -664 l-114 -308 469 0 468 0
-86 248 c-170 493 -301 889 -323 977 -13 50 -26 93 -29 97 -3 4 -66 -154 -138
-350z"/>
<path d="M36245 7004 c-234 -32 -340 -69 -480 -169 -228 -161 -395 -463 -478
-860 -49 -234 -61 -374 -61 -710 0 -428 34 -676 129 -963 181 -541 511 -821
971 -822 415 0 717 195 904 585 157 327 218 692 207 1242 -6 291 -18 416 -63
632 -119 580 -421 962 -826 1045 -78 16 -250 28 -303 20z"/>
<path d="M28640 7004 c-25 -2 -69 -6 -97 -10 l-53 -5 0 -893 0 -893 158 -7
c256 -11 410 16 528 92 147 95 244 272 290 527 26 142 26 483 0 610 -61 308
-213 492 -460 555 -75 19 -273 32 -366 24z"/>
<path d="M56500 7004 c-25 -2 -69 -6 -97 -10 l-53 -5 0 -893 0 -893 158 -7
c256 -11 410 16 528 92 147 95 244 272 290 527 26 142 26 483 0 610 -61 308
-213 492 -460 555 -75 19 -273 32 -366 24z"/>
<path d="M72780 7004 c-25 -2 -69 -6 -97 -10 l-53 -5 0 -893 0 -893 158 -7
c256 -11 410 16 528 92 147 95 244 272 290 527 26 142 26 483 0 610 -61 308
-213 492 -460 555 -75 19 -273 32 -366 24z"/>
<path d="M50608 1320 c-21 -4 -59 -20 -85 -36 -38 -24 -55 -44 -83 -98 l-35
-69 0 -151 c0 -146 1 -153 28 -206 37 -71 60 -96 122 -128 44 -23 62 -27 145
-27 73 0 106 5 138 19 l42 19 0 308 0 308 -29 20 c-33 24 -131 52 -176 50 -16
-1 -47 -5 -67 -9z"/>
<path d="M32225 1307 c-51 -29 -100 -94 -120 -160 -37 -119 -29 -325 16 -427
84 -191 321 -202 414 -20 35 70 48 155 43 287 -7 176 -57 281 -152 324 -59 27
-150 25 -201 -4z"/>
<path d="M36241 909 c-90 -11 -138 -33 -168 -78 -28 -41 -30 -108 -6 -158 34
-73 162 -94 261 -44 l42 21 0 135 0 135 -27 -1 c-16 -1 -61 -5 -102 -10z"/>
<path d="M51769 1307 c-61 -41 -99 -118 -99 -199 l0 -38 191 0 192 0 -5 74
c-6 88 -32 137 -89 166 -55 29 -145 27 -190 -3z"/>
<path d="M53809 1307 c-61 -41 -99 -118 -99 -199 l0 -38 191 0 192 0 -5 74
c-6 88 -32 137 -89 166 -55 29 -145 27 -190 -3z"/>
<path d="M60559 1307 c-61 -41 -99 -118 -99 -199 l0 -38 191 0 192 0 -5 74
c-6 88 -32 137 -89 166 -55 29 -145 27 -190 -3z"/>
</g>
</svg>
