<?xml version="1.0" standalone="no"?>
<!DOCTYPE svg PUBLIC "-//W3C//DTD SVG 20010904//EN"
 "http://www.w3.org/TR/2001/REC-SVG-20010904/DTD/svg10.dtd">
<svg version="1.0" xmlns="http://www.w3.org/2000/svg"
 width="7867.000000pt" height="828.000000pt" viewBox="0 0 7867.000000 828.000000"
 preserveAspectRatio="xMidYMid meet">

<g transform="translate(0.000000,828.000000) scale(0.100000,-0.100000)"
fill="#000000" stroke="none">
<path d="M4292 7953 c-2164 -3732 -4292 -7408 -4292 -7415 0 -4 2023 -8 4496
-8 2472 0 4493 3 4491 8 -59 111 -4492 7742 -4497 7742 -5 0 -94 -147 -198
-327z m45 -2549 l3 -1959 -703 -446 c-386 -246 -1199 -763 -1806 -1149 -955
-606 -1106 -699 -1118 -687 -12 12 229 434 1783 3115 1657 2859 1798 3100
1818 3093 l21 -8 2 -1959z m2120 -1089 c976 -1683 1782 -3075 1791 -3093 14
-28 14 -34 1 -47 -13 -13 -233 125 -1812 1128 l-1797 1142 0 1962 c0 2002 0
1977 34 1969 5 -1 807 -1379 1783 -3061z m-22 -2359 c952 -604 1731 -1099
1733 -1101 2 -1 0 -14 -4 -29 l-6 -26 -312 0 c-472 1 -685 19 -886 77 -202 58
-327 125 -547 290 -296 225 -552 394 -1043 692 -157 95 -385 234 -507 310
l-223 136 0 393 0 394 33 -19 c17 -11 810 -514 1762 -1117z m-2105 735 l0
-389 -682 -438 c-1336 -857 -1576 -1007 -1652 -1029 -158 -47 -777 -42 -1104
9 l-74 11 1753 1113 c964 611 1754 1112 1756 1112 2 0 3 -175 3 -389z m1104
-1233 c507 -325 925 -594 929 -598 4 -4 5 -14 1 -23 -6 -16 -139 -17 -1865
-17 -1764 0 -1859 1 -1868 18 -8 15 114 97 922 619 513 331 938 600 946 597 8
-3 429 -271 935 -596z"/>
<path d="M52637 7280 c-115 -20 -212 -41 -216 -46 -4 -5 -286 -684 -626 -1509
-884 -2145 -887 -2152 -975 -2248 -57 -62 -129 -102 -202 -113 l-48 -6 0 -60
c0 -50 3 -59 16 -54 8 3 131 11 273 18 207 9 316 9 547 -1 158 -7 294 -15 301
-18 10 -4 13 10 13 55 0 67 -6 72 -84 72 -119 0 -227 67 -241 148 -13 79 10
152 258 827 l144 390 559 3 560 2 173 -499 c200 -574 218 -642 201 -718 -20
-92 -102 -140 -267 -158 l-63 -7 0 -60 c0 -52 2 -59 18 -54 9 3 189 10 399 17
296 9 465 9 754 0 204 -7 378 -15 385 -18 11 -4 14 8 14 55 l0 60 -47 7 c-98
14 -162 57 -221 145 -40 59 -171 379 -282 685 -33 94 -296 834 -584 1645 -354
1002 -527 1475 -536 1477 -8 1 -109 -16 -223 -37z m-208 -1096 c22 -76 119
-370 215 -652 97 -282 176 -515 176 -518 0 -2 -207 -4 -461 -4 -365 0 -460 3
-457 13 42 119 484 1305 485 1303 2 -1 21 -65 42 -142z"/>
<path d="M36050 7255 c-813 -101 -1395 -564 -1633 -1302 -85 -260 -111 -444
-112 -768 0 -263 8 -349 51 -557 167 -801 750 -1312 1610 -1413 150 -17 470
-20 612 -4 265 28 519 102 742 215 297 151 514 345 694 621 237 362 348 806
333 1328 -8 272 -39 462 -109 675 -220 669 -734 1082 -1488 1196 -149 22 -551
27 -700 9z m480 -282 c464 -91 773 -542 876 -1278 25 -182 31 -674 10 -875
-82 -776 -375 -1220 -876 -1327 -124 -26 -326 -24 -443 5 -405 100 -683 456
-811 1037 -42 193 -58 349 -63 628 -6 296 4 471 38 681 87 533 299 891 626
1055 180 90 421 118 643 74z"/>
<path d="M77145 7260 c-44 -5 -129 -19 -189 -30 -508 -98 -829 -381 -918 -810
-29 -140 -21 -403 16 -544 64 -246 205 -441 453 -628 54 -40 231 -156 393
-258 399 -248 489 -310 574 -395 116 -117 171 -241 183 -410 14 -214 -65 -400
-219 -517 -155 -118 -405 -171 -689 -148 -329 27 -524 132 -620 335 -28 59
-69 200 -69 237 0 16 -9 18 -71 18 l-71 0 7 -87 c4 -49 11 -221 14 -383 l6
-295 125 -31 c414 -104 983 -122 1374 -43 488 99 812 352 930 729 91 286 71
654 -49 907 -56 118 -91 169 -190 271 -140 146 -245 220 -705 494 -409 244
-490 304 -576 424 -26 36 -58 97 -72 137 -23 63 -26 87 -26 197 0 103 4 136
23 190 60 173 186 280 396 336 57 16 106 19 270 19 174 -1 212 -4 290 -23 242
-61 400 -199 459 -401 9 -30 16 -70 16 -88 l0 -33 68 0 67 0 0 332 c0 183 3
358 7 389 l8 56 -143 17 c-78 9 -189 21 -247 27 -144 13 -727 20 -825 9z"/>
<path d="M10640 7182 l0 -59 51 -7 c126 -17 246 -97 287 -194 47 -110 47 -95
47 -1667 0 -1621 2 -1573 -58 -1692 -52 -102 -162 -175 -299 -198 l-38 -6 0
-58 0 -59 43 4 c157 14 471 24 757 24 294 0 786 -13 908 -24 l42 -4 0 64 0 64
-37 0 c-58 1 -182 26 -244 49 -68 26 -133 80 -161 135 -52 100 -52 99 -55 890
l-4 738 358 -5 c400 -6 447 -12 571 -73 114 -56 175 -148 203 -308 l11 -66 69
0 70 0 -7 38 c-10 49 -10 976 0 1075 l8 77 -70 0 -69 0 -16 -80 c-40 -205
-144 -314 -339 -354 -62 -13 -146 -16 -433 -16 l-355 0 0 737 0 736 408 -6
c451 -7 542 -17 650 -67 147 -69 252 -234 252 -397 l0 -43 71 0 72 0 -7 78
c-3 42 -9 219 -13 393 l-6 317 -1256 6 c-691 4 -1291 9 -1333 12 l-78 6 0 -60z"/>
<path d="M13960 7182 l0 -57 66 -13 c121 -23 223 -92 264 -180 52 -110 52
-110 60 -1372 7 -1257 7 -1260 59 -1463 44 -169 131 -340 239 -466 131 -153
360 -283 620 -351 397 -105 1052 -103 1450 5 457 123 758 423 859 855 44 193
45 222 53 1410 8 1185 9 1223 52 1339 43 113 177 215 301 228 l57 6 0 59 0 59
-187 -8 c-244 -10 -833 -10 -1040 0 l-163 8 0 -58 0 -58 62 -12 c136 -26 237
-102 277 -209 44 -117 46 -165 46 -1399 0 -1233 0 -1245 -46 -1435 -11 -47
-41 -128 -66 -180 -38 -79 -59 -109 -127 -176 -67 -67 -98 -89 -176 -127 -202
-98 -485 -128 -771 -81 -255 42 -439 162 -536 349 -51 99 -76 179 -100 321
-17 102 -18 190 -18 1309 0 1103 1 1208 18 1293 9 51 28 114 41 140 52 102
176 187 289 199 l57 6 0 59 0 58 -207 -7 c-266 -10 -968 -10 -1230 0 l-203 7
0 -58z"/>
<path d="M22440 7182 l0 -57 61 -12 c117 -22 216 -89 259 -173 54 -106 53 -72
60 -1335 7 -1139 10 -1220 41 -1400 71 -414 313 -716 695 -865 195 -76 396
-114 707 -132 331 -20 704 11 937 79 363 104 612 299 755 588 142 287 154 433
155 1830 0 902 5 1047 35 1151 20 69 70 141 129 185 52 39 156 79 206 79 30 0
30 0 30 60 l0 61 -182 -8 c-236 -10 -825 -10 -1040 0 l-168 8 0 -59 0 -59 51
-7 c126 -17 246 -97 287 -193 47 -111 47 -122 47 -1413 0 -1303 0 -1299 -51
-1478 -68 -236 -211 -395 -429 -477 -278 -105 -710 -91 -961 31 -113 55 -226
168 -284 283 -50 100 -84 226 -99 369 -14 135 -15 2348 -1 2477 19 169 60 256
154 326 52 39 156 79 206 79 30 0 30 0 30 60 l0 60 -202 -7 c-112 -5 -387 -8
-613 -8 -225 0 -501 3 -612 8 l-203 7 0 -58z"/>
<path d="M27290 7180 c0 -57 1 -60 24 -60 45 0 149 -39 202 -75 88 -61 125
-138 144 -300 13 -121 13 -2847 0 -2970 -6 -49 -19 -120 -30 -157 -37 -122
-155 -221 -295 -247 -32 -6 -60 -11 -62 -11 -2 0 -3 -27 -3 -61 0 -53 2 -60
18 -55 9 3 191 10 404 17 301 9 470 9 765 0 208 -7 386 -14 396 -17 15 -5 17
2 17 55 0 65 2 63 -74 76 -98 16 -208 91 -247 167 -50 99 -52 121 -56 776 l-4
612 119 0 120 0 147 -207 c262 -367 731 -985 874 -1151 174 -201 355 -296 629
-333 89 -12 792 -6 860 7 31 6 32 7 32 60 l0 53 -37 6 c-180 29 -333 141 -610
447 -174 193 -1113 1276 -1119 1291 -3 9 21 21 68 36 465 150 746 494 787 964
40 462 -177 837 -584 1006 -272 114 -497 138 -1155 125 -545 -11 -818 -11
-1107 -2 l-223 8 0 -60z m1565 -190 c376 -36 567 -253 616 -700 21 -191 -2
-466 -52 -635 -48 -159 -147 -303 -259 -375 -28 -18 -85 -44 -128 -58 -66 -22
-100 -26 -245 -30 -92 -2 -196 -1 -232 3 l-65 7 0 888 0 888 63 6 c34 4 82 8
107 9 25 2 54 4 65 5 11 1 70 -3 130 -8z"/>
<path d="M31790 7182 l0 -58 63 -11 c143 -24 249 -109 286 -227 39 -128 42
-263 38 -1721 -4 -1518 -3 -1479 -62 -1600 -48 -99 -156 -174 -284 -196 l-61
-11 0 -60 0 -60 28 6 c15 3 197 11 404 17 291 9 468 9 775 0 219 -7 406 -14
416 -17 15 -5 17 2 17 55 0 58 -1 61 -27 66 -135 29 -174 46 -244 112 -55 51
-81 109 -100 224 -9 55 -13 402 -16 1369 -5 1593 1 1744 72 1866 55 94 172
167 287 181 l48 6 0 58 0 59 -202 -7 c-260 -10 -962 -10 -1230 0 l-208 7 0
-58z"/>
<path d="M39240 7183 l0 -58 66 -13 c159 -30 257 -119 293 -264 25 -105 31
-378 31 -1578 -1 -1203 -6 -1483 -31 -1600 -34 -162 -150 -272 -317 -301 l-62
-11 0 -59 c0 -56 1 -59 23 -54 43 9 368 25 527 25 149 0 504 -14 593 -24 l37
-4 0 59 c0 56 -1 59 -27 64 -123 25 -219 75 -268 139 -36 47 -61 132 -74 249
-7 64 -11 544 -11 1414 l0 1317 43 -69 c24 -39 571 -771 1216 -1627 l1173
-1558 174 0 174 0 0 1608 c0 884 5 1677 10 1763 14 249 39 328 129 412 60 57
139 94 216 103 l55 7 0 59 0 59 -107 -8 c-141 -10 -737 -10 -925 0 l-148 8 0
-59 0 -58 62 -12 c117 -22 215 -87 259 -174 53 -104 53 -90 56 -1233 2 -582 2
-1057 -1 -1055 -2 3 -32 48 -66 100 -34 52 -467 633 -962 1293 l-900 1198
-142 -8 c-181 -10 -689 -10 -918 0 l-178 8 0 -58z"/>
<path d="M47340 7183 l0 -58 66 -13 c127 -24 224 -92 267 -189 52 -118 52
-115 52 -1673 0 -1335 -1 -1452 -18 -1538 -9 -51 -27 -114 -39 -140 -47 -100
-161 -181 -286 -203 l-62 -11 0 -59 c0 -56 1 -59 23 -54 41 9 470 25 697 25
260 0 987 -17 1043 -25 l37 -5 0 59 c0 58 0 59 -31 65 -17 3 -45 6 -61 6 -49
0 -178 30 -233 55 -64 28 -137 93 -171 151 -61 103 -58 26 -61 1785 l-4 1607
23 6 c13 3 86 9 163 12 403 19 632 -82 764 -335 86 -165 125 -424 103 -684
-23 -282 -95 -472 -231 -608 -128 -129 -267 -179 -491 -179 l-121 0 3 -67 3
-68 55 -12 c104 -23 292 -36 428 -29 248 12 461 61 638 145 132 63 211 117
308 210 181 176 279 394 307 684 27 293 -39 560 -187 754 -151 197 -409 335
-736 392 -207 37 -334 43 -818 39 -647 -4 -991 -3 -1227 5 l-203 8 0 -58z"/>
<path d="M55150 7183 l0 -59 62 -12 c117 -22 215 -87 259 -174 55 -107 53 -55
57 -1598 3 -1494 1 -1603 -40 -1726 -43 -130 -161 -222 -320 -249 l-38 -6 0
-60 c0 -53 2 -60 18 -55 9 2 189 10 399 17 297 9 468 9 765 0 211 -7 391 -14
401 -17 15 -5 17 2 17 55 0 65 2 63 -74 76 -98 16 -208 91 -247 167 -51 99
-52 121 -56 776 l-4 612 119 0 120 0 118 -167 c365 -516 869 -1170 990 -1284
146 -137 307 -209 542 -240 91 -12 799 -7 855 7 25 6 27 10 27 60 0 50 -2 54
-27 59 -194 39 -346 151 -626 463 -208 232 -1107 1272 -1107 1281 0 5 12 12
28 16 67 16 234 89 310 135 278 165 440 395 504 715 27 136 21 390 -11 510
-29 107 -108 265 -173 345 -143 174 -383 307 -658 364 -208 42 -393 47 -1450
36 -245 -3 -516 -1 -602 3 l-158 9 0 -59z m1675 -209 c157 -31 305 -134 384
-268 166 -280 174 -857 16 -1183 -76 -156 -181 -251 -333 -301 -66 -22 -100
-26 -245 -30 -92 -2 -196 -1 -232 3 l-65 7 0 888 0 888 63 6 c34 4 82 8 107
10 72 5 229 -5 305 -20z"/>
<path d="M62980 7183 l0 -58 66 -13 c120 -23 216 -87 260 -173 13 -26 32 -90
41 -141 17 -86 18 -201 18 -1528 0 -1516 -1 -1545 -46 -1665 -46 -122 -142
-202 -280 -231 l-79 -17 0 -59 c0 -55 1 -58 23 -53 43 9 368 25 527 25 149 0
504 -14 593 -24 l37 -4 0 59 c0 56 -1 59 -27 64 -193 38 -292 123 -330 280
-16 64 -17 193 -20 1455 l-4 1385 38 -63 c21 -35 569 -767 1216 -1628 l1178
-1564 174 0 174 0 4 1728 c4 1822 3 1808 49 1931 43 113 177 215 301 228 l57
6 0 59 0 59 -107 -8 c-141 -10 -737 -10 -925 0 l-148 8 0 -59 0 -60 47 -7
c117 -17 230 -91 274 -177 53 -104 52 -91 56 -1233 2 -582 2 -1057 -1 -1055
-2 3 -32 48 -67 100 -34 52 -467 634 -962 1293 l-900 1198 -141 -8 c-181 -10
-689 -10 -918 0 l-178 8 0 -58z"/>
<path d="M67750 7181 c0 -58 1 -61 24 -61 45 0 149 -39 202 -75 66 -46 100
-96 127 -193 l22 -77 3 -1435 c3 -1493 1 -1597 -38 -1724 -38 -120 -157 -220
-295 -245 -32 -6 -60 -11 -62 -11 -2 0 -3 -27 -3 -61 0 -55 2 -60 18 -53 9 4
616 10 1348 12 l1331 4 6 356 c4 197 10 387 13 425 l7 67 -72 0 -71 0 0 -37
c0 -65 -28 -174 -63 -248 -61 -127 -166 -205 -328 -245 -120 -29 -481 -47
-669 -32 -164 12 -209 30 -244 97 -21 39 -21 52 -24 789 l-2 748 357 -5 c385
-5 454 -13 558 -63 117 -55 192 -162 216 -309 l12 -75 66 0 66 0 0 595 0 595
-66 0 -67 0 -7 -47 c-23 -165 -105 -293 -222 -348 -100 -48 -173 -55 -559 -55
l-354 0 0 737 0 736 408 -6 c462 -8 542 -16 659 -72 85 -40 150 -102 188 -179
30 -62 55 -147 55 -193 0 -58 6 -63 77 -63 l66 0 -7 103 c-3 56 -9 233 -12
393 l-7 292 -1256 6 c-691 4 -1289 9 -1328 12 l-73 6 0 -61z"/>
<path d="M71430 7182 l0 -57 66 -13 c160 -30 257 -119 293 -266 26 -104 30
-349 30 -1571 1 -1212 -5 -1486 -30 -1605 -34 -162 -150 -272 -317 -301 l-62
-11 0 -60 c0 -57 1 -60 23 -55 12 3 194 11 405 18 298 9 467 9 765 0 210 -7
390 -15 400 -17 15 -5 17 2 17 55 0 58 -1 61 -27 66 -121 26 -167 44 -231 93
-42 32 -80 96 -98 166 -26 98 -34 286 -34 799 l0 507 123 0 122 0 85 -123
c216 -311 754 -1024 919 -1217 141 -164 252 -244 418 -300 167 -56 252 -63
673 -56 206 3 390 8 408 12 31 6 32 7 32 59 l0 53 -70 16 c-191 43 -338 167
-739 626 -341 391 -956 1101 -958 1108 -2 4 31 18 73 31 110 35 279 121 370
189 293 219 441 549 421 942 -13 258 -106 471 -278 636 -93 89 -145 124 -272
184 -272 130 -503 157 -1192 144 -544 -11 -863 -11 -1132 -1 l-203 7 0 -58z
m1680 -208 c230 -47 391 -206 463 -454 39 -134 50 -257 44 -473 -8 -261 -36
-387 -121 -552 -79 -155 -213 -255 -388 -290 -80 -15 -342 -21 -432 -9 l-46 7
0 888 0 887 73 6 c39 4 90 8 112 10 69 6 217 -4 295 -20z"/>
<path d="M18666 6899 c-3 -177 -9 -355 -13 -395 l-6 -74 72 0 71 0 0 43 c0 57
25 150 57 215 59 116 184 199 343 226 48 8 206 17 363 21 l278 7 -4 -1593 c-3
-1744 0 -1657 -61 -1776 -57 -113 -188 -180 -408 -208 l-48 -6 0 -60 c0 -53 2
-60 18 -55 9 3 220 10 468 17 346 9 554 9 900 0 247 -7 457 -14 467 -17 15 -5
17 2 17 58 l0 64 -92 11 c-232 28 -340 104 -384 270 -17 64 -18 168 -21 1681
l-4 1612 103 0 c207 -1 524 -20 586 -35 178 -43 295 -161 337 -337 8 -35 15
-80 15 -100 l0 -38 71 0 72 0 -6 58 c-4 31 -10 209 -13 395 l-7 337 -1582 0
-1582 0 -7 -321z"/>
<path d="M59196 6873 c-3 -192 -9 -369 -12 -395 l-7 -48 72 0 71 0 0 38 c0 60
28 161 62 223 57 109 170 188 308 219 56 12 370 29 563 29 l108 1 -4 -1602
c-3 -1492 -4 -1607 -20 -1668 -32 -115 -87 -186 -185 -235 -53 -27 -177 -59
-264 -70 l-48 -6 0 -60 c0 -53 2 -60 18 -55 9 3 222 10 472 17 346 9 561 9
895 0 242 -6 452 -14 468 -17 l27 -6 0 65 0 64 -76 6 c-152 13 -287 67 -345
136 -39 47 -67 136 -79 251 -6 58 -10 689 -10 1639 l0 1543 278 -7 c159 -4
313 -13 362 -21 164 -28 287 -109 345 -228 30 -62 55 -147 55 -193 0 -58 6
-63 77 -63 l66 0 -7 103 c-3 56 -9 234 -12 395 l-7 292 -1582 0 -1582 0 -7
-347z"/>
<path d="M50965 1869 c-16 -5 -70 -13 -119 -19 -48 -5 -91 -11 -93 -14 -10
-10 9 -26 30 -26 35 0 65 -27 77 -68 5 -20 10 -112 10 -203 l0 -166 -52 9
c-29 6 -102 8 -163 6 -102 -4 -116 -7 -186 -41 -159 -76 -239 -217 -239 -423
0 -120 26 -206 83 -277 126 -154 355 -179 527 -57 l29 21 3 -48 c2 -37 6 -47
18 -44 45 12 161 30 198 31 56 0 57 25 2 40 -79 21 -75 -14 -75 677 0 403 -3
613 -10 612 -5 0 -23 -5 -40 -10z m-170 -563 c79 -34 75 -12 75 -357 l0 -308
-32 -18 c-47 -24 -181 -29 -249 -10 -177 52 -253 283 -176 532 26 86 81 146
154 169 59 19 172 15 228 -8z"/>
<path d="M55455 1869 c-16 -5 -70 -13 -118 -18 -48 -5 -90 -11 -93 -14 -11
-11 8 -27 32 -27 14 0 35 -11 48 -24 34 -34 38 -112 34 -661 -3 -348 -7 -478
-17 -502 -14 -36 -42 -57 -89 -67 -77 -18 -20 -26 173 -26 113 0 205 4 205 8
0 4 -19 14 -42 22 -22 8 -51 28 -62 43 -21 28 -21 35 -21 653 0 410 -3 624
-10 623 -5 0 -23 -5 -40 -10z"/>
<path d="M30342 1739 c2 -7 19 -17 38 -23 18 -6 43 -24 54 -39 21 -28 21 -37
21 -536 0 -571 3 -548 -76 -579 -21 -8 -39 -19 -39 -24 0 -4 75 -8 166 -8 119
0 165 3 162 11 -2 7 -19 17 -38 23 -18 6 -43 24 -54 39 -21 28 -21 39 -23 485
-3 436 -2 456 15 432 14 -20 453 -585 712 -917 53 -68 70 -83 92 -83 l28 0 0
498 c1 273 5 530 9 570 10 82 30 114 87 132 67 23 33 30 -137 30 -129 0 -170
-3 -167 -12 3 -7 18 -16 34 -20 17 -4 41 -19 55 -34 l24 -26 3 -431 2 -432
-27 41 c-16 23 -181 238 -368 478 l-340 436 -118 0 c-84 0 -118 -3 -115 -11z"/>
<path d="M34376 1729 c-51 -40 -28 -128 39 -145 62 -15 115 24 115 85 0 50
-35 81 -90 81 -23 0 -48 -8 -64 -21z"/>
<path d="M38530 1735 c0 -9 9 -15 25 -15 14 0 39 -13 57 -29 l33 -29 0 -514
c0 -579 3 -555 -76 -586 -21 -8 -39 -19 -39 -24 0 -4 97 -8 215 -8 118 0 215
4 215 8 0 5 -26 16 -59 25 -95 27 -95 27 -99 320 l-4 249 165 -4 c160 -3 166
-4 192 -28 14 -13 31 -44 37 -67 6 -24 15 -43 22 -43 8 0 10 49 8 172 -2 95
-6 175 -8 178 -8 8 -24 -23 -24 -47 0 -13 -13 -37 -29 -55 l-29 -33 -166 -3
-166 -3 0 241 0 242 173 -4 c219 -5 254 -21 272 -120 9 -48 35 -52 35 -5 0 17
-3 69 -7 115 l-6 82 -368 0 c-321 0 -369 -2 -369 -15z"/>
<path d="M44186 1729 c-51 -40 -28 -128 39 -145 62 -15 115 24 115 85 0 50
-35 81 -90 81 -23 0 -48 -8 -64 -21z"/>
<path d="M46090 1735 c0 -9 9 -15 25 -15 14 0 39 -13 57 -29 l33 -29 0 -514
c0 -579 3 -555 -76 -586 -21 -8 -39 -19 -39 -24 0 -4 168 -8 374 -8 l375 0 3
120 c3 102 1 120 -12 118 -8 -2 -17 -21 -22 -46 -8 -47 -25 -76 -60 -100 -18
-13 -53 -18 -161 -20 -178 -5 -202 -1 -216 40 -7 19 -11 121 -11 260 l0 230
164 -4 c159 -3 165 -4 191 -28 14 -13 31 -44 37 -67 6 -24 15 -43 22 -43 8 0
10 49 8 172 -2 95 -6 175 -8 178 -8 8 -24 -23 -24 -47 0 -13 -13 -37 -29 -55
l-29 -33 -166 -3 -166 -3 0 241 0 242 173 -4 c219 -5 254 -21 272 -120 9 -48
35 -52 35 -5 0 17 -3 69 -7 115 l-6 82 -368 0 c-321 0 -369 -2 -369 -15z"/>
<path d="M49576 1729 c-51 -40 -28 -128 39 -145 62 -15 115 24 115 85 0 50
-35 81 -90 81 -23 0 -48 -8 -64 -21z"/>
<path d="M56136 1729 c-51 -40 -28 -128 39 -145 62 -15 115 24 115 85 0 50
-35 81 -90 81 -23 0 -48 -8 -64 -21z"/>
<path d="M58776 1729 c-51 -40 -28 -128 39 -145 62 -15 115 24 115 85 0 50
-35 81 -90 81 -23 0 -48 -8 -64 -21z"/>
<path d="M35195 1508 c-54 -86 -101 -135 -157 -164 -26 -13 -48 -29 -48 -34 0
-6 27 -10 59 -10 l60 0 3 -322 c3 -305 4 -325 24 -363 41 -79 143 -116 263
-97 81 14 155 50 159 79 3 20 2 20 -35 7 -90 -32 -194 -10 -237 49 -20 27 -21
43 -24 338 l-3 309 150 0 151 0 0 35 0 35 -150 0 -150 0 0 100 c0 121 -10 127
-65 38z"/>
<path d="M41115 1508 c-54 -86 -101 -135 -157 -164 -26 -13 -48 -29 -48 -34 0
-6 27 -10 59 -10 l60 0 3 -322 c3 -305 4 -325 24 -363 41 -79 143 -116 263
-97 81 14 155 50 159 79 3 20 2 20 -35 7 -90 -32 -194 -10 -237 49 -20 27 -21
43 -24 338 l-3 309 150 0 151 0 0 35 0 35 -150 0 -150 0 0 100 c0 121 -10 127
-65 38z"/>
<path d="M59605 1508 c-54 -86 -101 -135 -157 -164 -26 -13 -48 -29 -48 -34 0
-6 27 -10 59 -10 l60 0 3 -322 c3 -305 4 -325 24 -363 41 -79 143 -116 263
-97 81 14 155 50 159 79 3 20 2 20 -35 7 -90 -32 -194 -10 -237 49 -20 27 -21
43 -24 338 l-3 309 150 0 151 0 0 35 0 35 -150 0 -150 0 0 100 c0 121 -10 127
-65 38z"/>
<path d="M32259 1390 c-169 -22 -304 -156 -340 -338 -16 -87 -7 -232 20 -304
43 -111 129 -192 240 -224 38 -12 83 -15 155 -12 89 3 109 7 166 35 76 37 94
52 143 115 96 126 119 334 56 502 -27 73 -104 157 -174 190 -45 22 -165 48
-200 44 -5 0 -35 -4 -66 -8z m160 -80 c116 -59 176 -239 151 -448 -14 -107
-41 -180 -87 -227 -47 -48 -88 -65 -160 -65 -106 0 -176 56 -225 180 -19 48
-22 74 -22 205 0 134 2 156 23 209 26 66 81 133 126 152 47 20 149 17 194 -6z"/>
<path d="M36181 1389 c-86 -15 -159 -65 -195 -134 -25 -47 -2 -51 42 -7 49 49
97 66 173 60 63 -5 97 -23 133 -72 18 -23 22 -45 25 -147 l3 -119 -23 0 c-82
-1 -259 -22 -301 -36 -126 -41 -182 -176 -124 -300 42 -90 101 -119 230 -112
90 5 125 19 187 75 l39 35 0 -27 c0 -16 11 -38 29 -56 48 -48 134 -37 209 25
38 33 33 49 -13 40 -44 -8 -72 9 -83 50 -5 18 -7 134 -5 257 6 247 -2 321 -42
380 -46 70 -167 107 -284 88z m179 -608 l0 -140 -55 -20 c-147 -55 -265 -1
-265 122 0 120 79 170 278 176 l42 1 0 -139z"/>
<path d="M57783 1390 c-60 -13 -121 -41 -174 -82 l-46 -36 -27 34 c-42 53 -98
77 -192 82 -98 5 -170 -13 -243 -62 l-51 -35 0 50 c0 27 -2 49 -4 49 -3 0 -35
-6 -73 -14 -38 -8 -94 -16 -126 -17 -48 -2 -57 -5 -57 -21 0 -13 8 -18 30 -18
47 0 77 -36 85 -102 4 -29 5 -171 3 -313 -3 -221 -6 -265 -20 -291 -16 -28
-70 -64 -97 -64 -6 0 -11 -4 -11 -10 0 -6 72 -10 195 -10 107 0 195 4 195 8 0
5 -18 16 -39 24 -75 30 -76 32 -79 388 l-4 317 29 11 c180 70 332 21 362 -116
6 -31 11 -148 11 -280 0 -263 -5 -283 -77 -317 -24 -11 -43 -23 -43 -27 0 -5
88 -8 195 -8 123 0 195 4 195 10 0 6 -5 10 -11 10 -22 0 -75 31 -89 52 -12 18
-16 80 -21 308 -4 157 -10 297 -14 311 -6 25 -3 29 49 54 36 17 79 29 119 32
105 9 180 -25 220 -100 21 -40 22 -55 25 -297 3 -295 0 -310 -75 -345 -24 -11
-43 -23 -43 -27 0 -5 88 -8 195 -8 123 0 195 4 195 10 0 6 -5 10 -11 10 -22 0
-75 31 -89 52 -12 19 -16 80 -21 308 -4 180 -10 299 -18 323 -16 51 -76 116
-127 138 -49 22 -162 32 -221 19z"/>
<path d="M34445 1375 c-33 -8 -90 -15 -126 -16 -55 -3 -65 -6 -62 -19 3 -10
22 -20 46 -26 65 -14 70 -33 75 -279 2 -116 0 -256 -6 -313 -11 -117 -26 -143
-94 -164 -21 -6 -38 -15 -38 -20 0 -4 92 -8 205 -8 113 0 205 4 205 8 0 4 -19
14 -42 22 -22 8 -51 28 -62 43 -20 28 -21 39 -21 408 0 247 -3 379 -10 378 -5
-1 -37 -7 -70 -14z"/>
<path d="M37178 1380 c-52 -16 -98 -52 -126 -98 -22 -39 -27 -58 -26 -113 0
-108 26 -141 197 -254 157 -103 177 -126 177 -203 0 -61 -31 -104 -87 -123
-54 -18 -163 -7 -208 21 -38 24 -74 85 -75 128 0 14 -6 22 -16 22 -15 0 -16
-11 -9 -102 4 -59 12 -106 18 -110 47 -29 252 -37 334 -13 112 33 173 112 175
223 1 74 -28 140 -80 180 -20 16 -87 59 -149 96 -129 77 -157 108 -157 175 0
58 24 95 75 115 104 42 223 -7 249 -102 20 -75 35 -51 36 57 l1 99 -45 6 c-63
8 -251 6 -284 -4z"/>
<path d="M39805 1374 c-33 -7 -88 -14 -122 -16 -44 -2 -63 -7 -63 -16 0 -13 6
-16 52 -26 58 -13 62 -33 69 -336 7 -295 11 -324 60 -383 47 -57 109 -81 214
-81 102 -1 169 18 234 65 23 16 43 29 46 29 3 0 5 -22 5 -49 l0 -49 47 14 c26
8 84 17 130 21 58 4 83 10 83 19 0 7 -15 16 -34 19 -48 9 -74 37 -81 87 -3 24
-5 195 -3 381 2 185 1 337 -2 337 -3 0 -36 -7 -75 -14 -38 -8 -96 -16 -127
-18 -48 -2 -58 -6 -58 -20 0 -13 8 -18 29 -18 45 0 72 -29 82 -86 4 -27 8
-171 8 -321 l1 -272 -57 -21 c-79 -30 -194 -32 -249 -3 -44 22 -79 68 -94 122
-6 20 -10 168 -10 344 0 240 -3 307 -12 306 -7 -1 -40 -7 -73 -15z"/>
<path d="M41975 1374 c-33 -7 -88 -14 -122 -16 -44 -2 -63 -7 -63 -16 0 -13 6
-16 52 -26 58 -13 62 -33 69 -336 7 -295 11 -324 60 -383 47 -57 109 -81 214
-81 102 -1 169 18 234 65 23 16 43 29 46 29 3 0 5 -22 5 -49 l0 -49 47 14 c26
8 84 17 130 21 58 4 83 10 83 19 0 7 -15 16 -34 19 -48 9 -74 37 -81 87 -3 24
-5 195 -3 381 2 185 1 337 -2 337 -3 0 -36 -7 -75 -14 -38 -8 -96 -16 -127
-18 -48 -2 -58 -6 -58 -20 0 -13 8 -18 29 -18 45 0 72 -29 82 -86 4 -27 8
-171 8 -321 l1 -272 -57 -21 c-79 -30 -194 -32 -249 -3 -44 22 -79 68 -94 122
-6 20 -10 168 -10 344 0 240 -3 307 -12 306 -7 -1 -40 -7 -73 -15z"/>
<path d="M43295 1375 c-33 -8 -86 -15 -117 -16 -49 -2 -58 -5 -58 -21 0 -13 8
-18 30 -18 47 0 77 -36 85 -102 4 -29 5 -171 3 -313 -3 -221 -6 -265 -20 -291
-16 -28 -70 -64 -97 -64 -6 0 -11 -4 -11 -10 0 -6 78 -10 215 -10 134 0 215 4
215 10 0 5 -12 12 -27 16 -132 29 -127 14 -131 385 l-4 308 29 14 c69 35 160
27 222 -20 33 -26 34 -26 48 -7 35 47 54 95 43 109 -20 24 -80 38 -144 33 -68
-6 -108 -23 -161 -69 l-35 -31 0 56 c0 63 4 60 -85 41z"/>
<path d="M44255 1375 c-33 -8 -90 -15 -126 -16 -55 -3 -65 -6 -62 -19 3 -10
22 -20 46 -26 65 -14 70 -33 75 -279 2 -116 0 -256 -6 -313 -11 -117 -26 -143
-94 -164 -21 -6 -38 -15 -38 -20 0 -4 92 -8 205 -8 113 0 205 4 205 8 0 4 -19
14 -42 22 -22 8 -51 28 -62 43 -20 28 -21 39 -21 408 0 247 -3 379 -10 378 -5
-1 -37 -7 -70 -14z"/>
<path d="M44949 1375 c-56 -30 -63 -125 -12 -165 28 -22 91 -27 124 -10 22 12
49 61 49 89 0 78 -89 125 -161 86z"/>
<path d="M48685 1376 c-190 -60 -295 -219 -295 -446 1 -138 28 -221 101 -304
62 -70 133 -100 250 -104 69 -3 112 0 151 12 66 19 151 74 156 100 4 21 1 20
-73 -8 -60 -23 -182 -20 -249 5 -72 26 -136 96 -162 176 -26 80 -27 285 -1
358 37 108 114 165 222 165 74 0 129 -24 172 -73 18 -21 36 -37 41 -37 10 0
72 86 72 100 0 17 -49 42 -108 56 -71 17 -224 17 -277 0z"/>
<path d="M49645 1375 c-33 -8 -90 -15 -126 -16 -55 -3 -65 -6 -62 -19 3 -10
22 -20 46 -26 65 -14 70 -33 75 -279 2 -116 0 -256 -6 -313 -11 -117 -26 -143
-94 -164 -21 -6 -38 -15 -38 -20 0 -4 92 -8 205 -8 113 0 205 4 205 8 0 4 -19
14 -42 22 -22 8 -51 28 -62 43 -20 28 -21 39 -21 408 0 247 -3 379 -10 378 -5
-1 -37 -7 -70 -14z"/>
<path d="M51773 1376 c-162 -51 -262 -220 -263 -445 0 -142 36 -244 112 -318
107 -104 311 -130 463 -58 115 54 143 115 35 74 -72 -27 -205 -29 -270 -4
-124 49 -175 135 -194 328 l-6 57 281 0 282 0 -6 83 c-11 148 -87 254 -205
287 -51 14 -178 11 -229 -4z m194 -72 c39 -28 70 -97 78 -171 l7 -63 -196 0
-196 0 0 38 c0 88 44 176 102 206 47 24 167 18 205 -10z"/>
<path d="M52785 1375 c-33 -8 -86 -15 -117 -16 -49 -2 -58 -5 -58 -21 0 -13 8
-18 30 -18 47 0 77 -36 85 -102 4 -29 5 -171 3 -313 -3 -221 -6 -265 -20 -291
-16 -28 -70 -64 -97 -64 -6 0 -11 -4 -11 -10 0 -6 78 -10 215 -10 134 0 215 4
215 10 0 5 -12 12 -27 16 -132 29 -127 14 -131 385 l-4 308 29 14 c69 35 160
27 222 -20 33 -26 34 -26 48 -7 35 47 54 95 43 109 -20 24 -80 38 -144 33 -68
-6 -108 -23 -161 -69 l-35 -31 0 56 c0 63 4 60 -85 41z"/>
<path d="M53823 1376 c-162 -51 -262 -220 -263 -445 0 -142 36 -244 112 -318
107 -104 311 -130 463 -58 115 54 143 115 35 74 -72 -27 -205 -29 -270 -4
-124 49 -175 135 -194 328 l-6 57 281 0 282 0 -6 83 c-11 148 -87 254 -205
287 -51 14 -178 11 -229 -4z m194 -72 c39 -28 70 -97 78 -171 l7 -63 -196 0
-196 0 0 38 c0 88 44 176 102 206 47 24 167 18 205 -10z"/>
<path d="M56205 1375 c-33 -8 -90 -15 -126 -16 -55 -3 -65 -6 -62 -19 3 -10
22 -20 46 -26 65 -14 70 -33 75 -279 2 -116 0 -256 -6 -313 -11 -117 -26 -143
-94 -164 -21 -6 -38 -15 -38 -20 0 -4 92 -8 205 -8 113 0 205 4 205 8 0 4 -19
14 -42 22 -22 8 -51 28 -62 43 -20 28 -21 39 -21 408 0 247 -3 379 -10 378 -5
-1 -37 -7 -70 -14z"/>
<path d="M58845 1375 c-33 -8 -90 -15 -126 -16 -55 -3 -65 -6 -62 -19 3 -10
22 -20 46 -26 65 -14 70 -33 75 -279 2 -116 0 -256 -6 -313 -11 -117 -26 -143
-94 -164 -21 -6 -38 -15 -38 -20 0 -4 92 -8 205 -8 113 0 205 4 205 8 0 4 -19
14 -42 22 -22 8 -51 28 -62 43 -20 28 -21 39 -21 408 0 247 -3 379 -10 378 -5
-1 -37 -7 -70 -14z"/>
<path d="M60573 1376 c-162 -51 -262 -220 -263 -445 0 -142 36 -244 112 -318
107 -104 311 -130 463 -58 115 54 143 115 35 74 -72 -27 -205 -29 -270 -4
-124 49 -175 135 -194 328 l-6 57 281 0 282 0 -6 83 c-11 148 -87 254 -205
287 -51 14 -178 11 -229 -4z m194 -72 c39 -28 70 -97 78 -171 l7 -63 -196 0
-196 0 0 38 c0 88 44 176 102 206 47 24 167 18 205 -10z"/>
<path d="M61598 1380 c-52 -16 -98 -52 -126 -98 -22 -39 -27 -58 -26 -113 0
-108 26 -141 197 -254 157 -103 177 -126 177 -203 0 -61 -31 -104 -87 -123
-54 -18 -163 -7 -208 21 -38 24 -74 85 -75 128 0 14 -6 22 -16 22 -15 0 -16
-11 -9 -102 4 -59 12 -106 18 -110 47 -29 252 -37 334 -13 112 33 173 112 175
223 1 74 -28 140 -80 180 -20 16 -87 59 -149 96 -129 77 -157 108 -157 175 0
58 24 95 75 115 104 42 223 -7 249 -102 20 -75 35 -51 36 57 l1 99 -45 6 c-63
8 -251 6 -284 -4z"/>
<path d="M33050 1363 c0 -7 8 -13 19 -13 44 0 69 -50 226 -446 l156 -394 27 6
c15 4 30 9 33 13 3 3 82 177 175 385 169 379 201 436 245 436 10 0 19 6 19 13
0 9 -38 12 -155 12 -109 0 -155 -3 -155 -11 0 -7 15 -15 34 -18 42 -8 59 -28
58 -68 0 -17 -49 -152 -109 -300 l-108 -269 -13 43 c-8 24 -54 148 -103 275
-49 128 -89 246 -89 261 0 35 15 50 58 58 18 4 32 12 32 18 0 8 -52 11 -175
11 -133 0 -175 -3 -175 -12z"/>
<path d="M47220 1365 c0 -5 15 -17 33 -25 22 -10 73 -70 164 -190 73 -96 133
-179 133 -184 0 -12 -222 -308 -272 -362 -21 -23 -50 -45 -63 -48 -14 -4 -25
-11 -25 -16 0 -6 59 -10 150 -10 83 0 150 4 150 8 0 5 -15 15 -32 23 -27 11
-34 20 -36 50 -3 30 9 54 79 160 44 68 84 127 88 132 7 7 171 -211 192 -256
18 -40 4 -74 -36 -88 -19 -7 -35 -17 -35 -21 0 -4 83 -8 185 -8 102 0 185 4
185 8 0 4 -16 14 -35 21 -28 10 -63 50 -186 214 -84 111 -156 207 -161 213 -5
8 32 65 108 163 116 151 163 201 190 201 8 0 14 6 14 13 0 9 -36 12 -145 12
-150 0 -173 -7 -112 -35 59 -27 49 -70 -51 -218 l-49 -73 -77 103 c-65 88 -76
108 -74 138 3 28 9 38 35 50 63 29 38 35 -142 35 -110 0 -175 -4 -175 -10z"/>
<path d="M44964 700 c-12 -4 -31 -21 -44 -37 -29 -37 -23 -98 15 -130 28 -25
91 -31 126 -13 22 13 49 61 49 90 0 70 -78 118 -146 90z"/>
</g>
</svg>
