<?xml version="1.0" standalone="no"?>
<!DOCTYPE svg PUBLIC "-//W3C//DTD SVG 20010904//EN"
 "http://www.w3.org/TR/2001/REC-SVG-20010904/DTD/svg10.dtd">
<svg version="1.0" xmlns="http://www.w3.org/2000/svg"
 width="7868.000000pt" height="836.000000pt" viewBox="0 0 7868.000000 836.000000"
 preserveAspectRatio="xMidYMid meet">
<metadata>
Created by potrace 1.16, written by Peter Selinger 2001-2019
</metadata>
<g transform="translate(0.000000,836.000000) scale(0.100000,-0.100000)"
fill="#000000" stroke="none">
<path d="M0 4180 l0 -4180 39340 0 39340 0 0 4180 0 4180 -39340 0 -39340 0 0
-4180z m6747 304 c1234 -2127 2240 -3870 2237 -3875 -8 -13 -8961 -12 -8969 1
-5 8 4431 7680 4468 7728 5 6 12 12 16 12 3 0 1015 -1740 2248 -3866z m46151
2849 c24 -70 953 -2692 1059 -2988 96 -269 257 -678 289 -733 59 -100 132
-156 225 -169 l54 -8 3 -58 3 -58 -123 8 c-160 10 -1156 10 -1316 0 l-123 -8
3 58 3 58 75 7 c122 11 205 49 235 108 19 38 19 139 0 215 -9 33 -93 282 -187
553 l-171 492 -564 -2 -565 -3 -154 -420 c-220 -600 -236 -649 -242 -731 -5
-82 9 -119 60 -157 44 -33 89 -47 175 -54 40 -3 78 -12 84 -19 5 -7 9 -32 7
-56 l-3 -43 -130 5 c-195 8 -806 6 -918 -2 l-98 -8 3 58 3 57 50 6 c112 14
203 91 278 237 70 135 206 458 882 2097 345 836 631 1525 636 1530 9 9 376 82
426 84 17 1 25 -10 41 -56z m-16233 -4 c338 -34 681 -153 923 -318 430 -295
677 -736 753 -1346 16 -128 16 -470 0 -600 -80 -646 -363 -1143 -829 -1455
-464 -310 -1149 -418 -1777 -279 -825 183 -1325 770 -1416 1663 -17 171 -7
515 21 676 41 244 106 453 203 645 369 737 1154 1112 2122 1014z m41225 0
c131 -9 340 -30 430 -44 l35 -6 -3 -382 -2 -382 -62 0 -61 0 -13 64 c-67 325
-371 500 -835 477 -339 -16 -540 -146 -604 -391 -20 -77 -20 -243 0 -320 34
-129 120 -244 260 -350 41 -30 220 -143 400 -250 179 -107 365 -222 414 -254
389 -262 544 -506 581 -915 20 -217 -16 -445 -98 -620 -49 -104 -86 -158 -165
-243 -189 -202 -453 -323 -852 -390 -91 -15 -165 -18 -425 -18 -335 1 -443 10
-694 59 -183 36 -235 53 -240 79 -4 20 -19 508 -20 672 l-1 70 57 3 c67 3 65
6 92 -118 47 -210 179 -356 385 -425 123 -42 193 -50 416 -49 193 0 218 3 307
27 241 64 400 210 454 418 21 78 23 260 5 339 -33 142 -133 279 -283 391 -42
31 -202 135 -355 230 -545 338 -689 453 -824 659 -166 252 -212 637 -112 945
53 165 125 278 253 398 210 197 506 307 915 337 123 9 425 4 645 -11z m-65774
-28 c932 -1 1184 -4 1191 -13 6 -8 13 -160 17 -373 3 -198 7 -369 8 -380 3
-18 -4 -20 -60 -23 -44 -2 -63 1 -66 10 -2 7 -9 47 -15 88 -23 150 -98 260
-221 324 -122 65 -153 68 -647 73 l-443 5 0 -737 0 -737 383 5 c315 3 393 7
447 21 70 18 132 50 184 96 59 53 126 203 126 286 0 44 19 56 81 52 l53 -3 1
-592 0 -593 -62 0 c-57 0 -63 2 -67 23 -22 114 -32 149 -57 198 -35 71 -113
142 -187 170 -111 42 -187 48 -555 49 l-349 0 5 -717 c3 -481 9 -738 16 -778
16 -78 45 -142 84 -184 45 -47 154 -97 240 -111 40 -6 92 -14 117 -18 l45 -7
0 -55 0 -55 -105 2 c-58 2 -231 7 -384 13 -354 13 -614 13 -886 0 -118 -6
-251 -12 -295 -13 l-80 -2 -3 43 c-4 55 7 68 64 75 25 2 79 21 119 41 120 60
179 144 207 300 15 85 23 2754 9 2962 -7 95 -18 174 -31 215 -36 117 -118 187
-265 224 -79 20 -80 21 -83 54 -2 19 -1 43 2 55 5 20 8 21 143 15 76 -4 670
-7 1319 -8z m2277 -1 c315 -10 480 -10 790 0 216 6 397 13 402 13 6 1 11 -23
13 -54 l3 -55 -62 -12 c-121 -22 -223 -90 -272 -181 -62 -114 -60 -70 -65
-1376 -2 -806 0 -1227 8 -1305 14 -155 43 -267 97 -380 38 -78 59 -108 122
-170 156 -154 362 -220 686 -220 234 0 376 29 530 108 194 100 308 265 367
532 l23 105 0 1270 c0 1362 1 1334 -50 1435 -46 90 -143 157 -263 180 l-63 13
3 56 c2 31 8 55 13 55 6 -1 150 -8 321 -14 249 -10 383 -10 665 0 195 6 359
13 364 14 6 0 11 -24 13 -55 l3 -55 -62 -12 c-173 -32 -286 -144 -320 -317 -8
-42 -14 -401 -19 -1185 -5 -741 -11 -1159 -19 -1225 -26 -226 -66 -376 -137
-517 -182 -362 -509 -563 -1046 -644 -144 -21 -578 -30 -749 -15 -831 76
-1223 414 -1315 1132 -15 116 -18 289 -24 1294 -7 1270 -4 1217 -66 1322 -42
72 -140 132 -251 153 l-63 13 0 52 c0 50 6 69 19 61 3 -2 185 -9 404 -16z
m8867 -2 c272 0 566 4 653 9 156 8 158 8 163 -13 3 -12 4 -36 2 -55 -3 -32 -5
-34 -65 -46 -135 -27 -251 -117 -292 -228 -45 -119 -46 -163 -46 -1415 0
-1089 1 -1194 18 -1298 48 -302 157 -478 363 -585 163 -83 335 -113 604 -104
291 10 469 74 616 221 126 127 194 282 225 511 20 141 20 2450 1 2569 -30 188
-108 276 -287 321 -79 20 -80 21 -83 54 -2 19 -1 43 2 55 5 21 8 21 138 12
166 -11 904 -10 1096 1 140 8 143 8 148 -13 3 -12 4 -36 2 -55 -3 -32 -5 -34
-66 -46 -133 -27 -250 -119 -291 -227 -41 -111 -43 -159 -51 -1336 -8 -1282
-8 -1285 -87 -1525 -54 -166 -128 -288 -251 -417 -136 -142 -276 -227 -491
-298 -257 -86 -494 -114 -886 -107 -375 7 -601 44 -840 138 -351 137 -591 420
-671 794 -47 220 -47 206 -54 1445 -5 815 -11 1193 -19 1235 -31 161 -135 264
-300 295 -69 13 -71 15 -71 60 0 68 -7 66 168 57 86 -5 380 -9 652 -9z m5865
12 c512 -28 838 -159 1043 -417 202 -254 256 -624 145 -978 -53 -169 -132
-293 -267 -423 -130 -124 -257 -201 -436 -263 -52 -17 -99 -35 -104 -40 -7 -6
257 -316 913 -1069 430 -493 596 -636 785 -674 l61 -13 0 -54 0 -54 -65 -6
c-149 -15 -637 -21 -742 -11 -397 41 -541 132 -863 542 -191 243 -592 780
-730 977 l-120 172 -127 1 -128 0 0 -462 c0 -549 10 -765 41 -864 18 -58 30
-78 78 -125 60 -59 132 -94 218 -106 48 -6 57 -22 51 -84 l-3 -34 -180 5
c-270 7 -1046 6 -1243 -2 l-173 -8 3 58 3 57 53 7 c119 17 232 98 281 201 57
119 56 83 56 1687 0 1562 0 1563 -46 1671 -39 89 -148 166 -269 189 -30 6 -58
14 -63 19 -4 4 -7 28 -5 52 l3 44 500 -2 c275 -2 599 1 720 5 322 13 410 13
610 2z m3098 -10 c314 -10 480 -10 790 0 216 6 397 13 402 13 6 1 11 -23 13
-54 l3 -57 -48 -7 c-157 -23 -276 -122 -317 -264 -34 -116 -37 -289 -34 -1726
4 -1549 2 -1481 65 -1596 44 -81 152 -151 255 -165 59 -8 70 -21 66 -76 l-3
-43 -190 5 c-104 3 -388 5 -630 5 -242 0 -523 -2 -625 -5 l-185 -5 -3 43 c-4
55 7 68 66 76 59 8 144 47 197 91 49 39 98 128 115 205 23 108 29 450 29 1620
1 1180 -6 1476 -33 1579 -36 130 -131 216 -276 247 l-80 17 0 52 c0 50 6 69
19 61 3 -2 185 -9 404 -16z m7692 0 c209 1 423 2 476 3 l97 2 887 -1180 c488
-649 923 -1233 966 -1299 l79 -119 0 974 c0 536 -5 1028 -10 1094 -12 154 -37
238 -90 298 -47 53 -138 102 -218 117 -70 13 -72 15 -72 60 0 68 -4 66 138 57
178 -11 718 -14 895 -4 l147 8 0 -54 0 -53 -62 -12 c-122 -23 -230 -98 -276
-193 -59 -121 -56 -25 -59 -1928 -3 -1235 -7 -1749 -15 -1758 -8 -10 -50 -13
-167 -13 -86 0 -161 4 -167 8 -20 13 -2356 3124 -2400 3195 l-44 71 0 -1199
c1 -1205 8 -1577 33 -1670 40 -144 133 -227 290 -259 l62 -13 3 -57 3 -57
-133 8 c-167 10 -820 10 -951 1 l-98 -8 3 58 3 57 55 7 c111 16 235 100 281
190 11 21 27 68 37 105 16 63 17 177 17 1598 0 1450 -1 1533 -18 1595 -23 81
-56 140 -99 172 -54 41 -130 75 -196 88 l-62 13 0 52 c0 28 2 54 4 56 2 2 67
0 143 -4 76 -5 309 -8 518 -7z m8580 3 c823 2 854 1 1095 -39 105 -18 281 -71
379 -115 162 -73 337 -226 419 -365 84 -143 132 -339 132 -540 0 -646 -391
-1057 -1094 -1150 -153 -20 -441 -14 -564 12 -91 19 -96 25 -90 100 l3 39 140
6 c164 8 212 18 320 70 181 86 295 247 355 503 27 113 40 321 29 486 -19 304
-118 523 -288 637 -129 86 -246 113 -494 113 -96 0 -195 -3 -221 -6 l-46 -7 2
-1631 c3 -1544 4 -1634 21 -1686 55 -167 184 -256 407 -282 52 -5 101 -12 108
-14 8 -2 12 -23 12 -59 l0 -55 -182 7 c-236 10 -1406 10 -1521 0 l-88 -7 3 57
3 58 55 7 c111 16 235 100 281 190 10 20 27 66 36 100 16 58 18 185 21 1538 3
1540 2 1607 -39 1716 -38 102 -141 178 -276 204 l-63 13 0 52 c0 28 2 54 4 56
2 2 80 1 173 -3 92 -5 528 -7 968 -5z m7280 -2 c187 0 484 4 659 10 370 12
664 1 858 -32 534 -90 849 -373 924 -828 29 -177 5 -412 -61 -586 -115 -305
-367 -532 -722 -649 l-83 -28 98 -111 c53 -62 302 -348 552 -637 715 -824 850
-951 1063 -994 l62 -13 3 -51 c2 -41 0 -51 -15 -56 -29 -9 -384 -26 -554 -26
-450 0 -674 74 -885 291 -45 46 -135 151 -200 234 -173 218 -642 846 -764
1022 l-105 152 -127 0 -128 1 0 -492 c1 -640 11 -789 61 -889 41 -83 163 -160
276 -176 48 -6 57 -22 51 -84 l-3 -34 -180 5 c-99 3 -376 5 -615 5 -239 0
-518 -2 -620 -5 l-185 -5 -3 43 c-4 56 7 68 68 75 118 14 248 113 288 220 45
119 45 109 49 1567 4 1455 1 1610 -36 1731 -37 117 -141 203 -279 229 -70 13
-72 15 -72 60 0 67 -5 66 148 59 75 -4 290 -7 477 -8z m7880 -1 c209 1 423 2
476 3 l97 2 898 -1195 c494 -657 928 -1242 966 -1299 l68 -105 0 965 c0 999
-6 1180 -40 1291 -36 116 -118 186 -265 223 -79 20 -80 21 -83 54 -2 19 -1 43
2 55 5 21 8 21 133 13 179 -11 719 -14 896 -4 l147 8 0 -54 0 -53 -62 -12
c-172 -32 -284 -143 -319 -317 -9 -45 -13 -490 -16 -1804 -3 -1240 -7 -1749
-15 -1758 -8 -10 -50 -13 -167 -13 -86 0 -161 4 -167 8 -20 14 -2338 3097
-2391 3182 l-54 85 4 -1370 c5 -1391 6 -1436 43 -1547 33 -100 143 -185 275
-212 l64 -13 3 -57 3 -57 -133 8 c-167 10 -820 10 -951 1 l-98 -8 3 58 3 57
55 8 c73 10 149 46 205 98 60 55 90 107 112 194 17 66 18 163 18 1595 0 1418
-1 1530 -17 1593 -10 37 -25 81 -33 97 -40 77 -150 148 -263 170 l-62 13 0 52
c0 28 2 54 4 56 2 2 67 0 143 -4 76 -5 309 -8 518 -7z m5445 0 l1315 -5 6
-325 c4 -179 8 -354 10 -390 l4 -65 -65 0 -65 0 -6 55 c-20 178 -98 299 -239
370 -116 58 -151 62 -637 67 l-443 5 0 -737 0 -737 388 5 c424 4 460 9 565 70
85 50 155 156 178 269 25 123 17 113 84 113 l60 0 0 -592 0 -593 -62 0 -62 0
-6 38 c-29 183 -92 281 -219 342 -107 51 -197 60 -583 60 l-344 0 3 -737 3
-738 25 -50 c20 -40 35 -55 75 -75 l50 -25 335 0 c284 0 348 3 420 18 164 35
288 113 349 221 37 65 69 168 77 251 8 73 15 79 90 73 l39 -3 -4 -415 c-2
-292 -7 -419 -15 -427 -8 -9 -318 -12 -1351 -14 l-1340 -1 -3 42 c-4 54 7 66
68 73 99 12 216 88 266 173 74 126 76 186 71 1824 -4 1461 -4 1458 -49 1561
-38 89 -147 166 -267 189 -69 13 -71 15 -71 60 0 49 9 72 24 62 6 -4 603 -9
1326 -12z m3225 7 c873 13 1074 7 1306 -37 552 -105 879 -467 882 -975 2 -519
-273 -899 -781 -1075 -83 -29 -91 -34 -79 -49 8 -9 236 -272 507 -586 696
-804 797 -913 944 -1023 74 -55 187 -109 247 -118 24 -4 50 -11 57 -17 16 -13
15 -82 -1 -96 -21 -17 -444 -34 -667 -27 -361 11 -557 76 -744 247 -118 108
-734 908 -1040 1352 l-68 97 -125 0 -124 0 4 -612 c4 -666 6 -688 62 -784 45
-76 139 -136 249 -158 l61 -13 3 -56 3 -57 -168 8 c-217 9 -1015 9 -1251 0
l-183 -8 3 57 3 58 55 7 c111 16 235 100 281 190 10 20 27 66 36 100 16 58 17
186 21 1538 3 1539 2 1606 -39 1716 -38 100 -144 178 -277 204 l-62 13 0 52
c0 28 2 54 4 56 2 2 80 0 173 -4 92 -5 411 -5 708 0z m-50487 -19 c5 -8 12
-159 15 -378 3 -201 7 -372 8 -380 3 -12 -9 -16 -62 -18 l-66 -3 -7 64 c-12
121 -68 242 -142 307 -49 43 -146 89 -223 107 -47 10 -154 16 -373 20 l-308 6
0 -1484 c0 -1465 5 -1720 34 -1826 43 -159 159 -231 419 -258 l57 -6 0 -60 0
-59 -177 7 c-201 9 -1156 11 -1483 3 l-215 -5 -3 43 c-2 24 2 49 7 56 6 7 39
16 74 19 233 23 374 121 416 290 26 109 31 348 31 1785 l0 1492 -237 0 c-381
-1 -497 -19 -620 -99 -100 -64 -164 -176 -184 -319 l-12 -82 -62 0 -62 0 5
383 c3 233 8 387 14 395 15 18 3141 18 3156 0z m40543 -318 c4 -179 8 -354 10
-390 l4 -65 -65 0 -65 0 -6 55 c-20 178 -98 299 -239 370 -106 53 -164 61
-497 67 l-303 5 0 -1569 c0 -1044 4 -1597 11 -1653 18 -149 68 -229 177 -284
52 -26 162 -56 208 -56 16 0 46 -3 67 -6 l37 -7 0 -59 0 -59 -162 8 c-211 10
-1335 10 -1546 0 l-163 -8 3 58 3 58 70 7 c96 11 223 51 281 90 94 63 137 156
154 333 6 60 10 716 10 1624 l0 1524 -307 -6 c-270 -4 -318 -7 -386 -26 -221
-59 -315 -174 -352 -433 l-6 -38 -66 0 -66 0 7 88 c3 48 8 220 12 382 3 162 7
301 9 308 4 10 325 12 1582 10 l1578 -3 6 -325z m-11088 -5546 c2 -783 -3
-734 83 -755 33 -9 44 -16 42 -28 -3 -12 -22 -18 -83 -24 -44 -4 -107 -14
-140 -22 -33 -7 -63 -11 -67 -9 -5 3 -8 25 -8 50 l0 45 -27 -19 c-133 -93
-314 -110 -460 -42 -148 68 -233 222 -233 420 0 161 46 286 140 384 108 113
222 152 415 143 66 -3 130 -9 143 -13 l23 -7 -3 210 c-4 243 -7 255 -84 274
-33 9 -44 16 -42 28 3 13 23 18 100 24 53 4 116 14 140 21 24 8 47 13 51 12 5
-1 9 -312 10 -692z m5027 0 c0 -613 2 -700 16 -729 15 -32 55 -59 99 -67 11
-2 20 -10 20 -17 0 -12 -37 -14 -225 -13 -161 1 -225 4 -225 12 0 7 17 18 38
25 46 16 64 30 85 69 15 28 17 87 17 631 0 330 -3 612 -8 627 -8 30 -44 68
-63 68 -7 0 -25 5 -39 10 -48 18 -14 36 83 44 48 4 110 13 137 20 28 8 53 15
58 15 4 1 7 -312 7 -695z m-27567 56 c208 -267 392 -505 408 -530 l30 -45 -3
470 c-3 537 0 514 -86 552 -29 13 -50 28 -47 33 4 6 81 10 196 10 151 0 189
-3 189 -13 0 -8 -17 -19 -38 -25 -51 -15 -83 -51 -93 -104 -4 -24 -8 -312 -9
-640 l0 -598 -38 0 c-38 0 -39 1 -254 278 -119 152 -316 404 -437 560 l-221
284 0 -492 c0 -548 -1 -542 66 -573 19 -9 42 -17 50 -17 9 0 14 -7 12 -17 -3
-15 -22 -17 -187 -15 -184 1 -235 11 -175 31 57 20 79 37 97 71 16 32 17 77
15 601 -3 551 -4 568 -23 589 -11 13 -39 31 -62 41 -26 11 -41 23 -38 31 4 10
35 12 137 8 l132 -5 379 -485z m3989 489 c42 -11 68 -48 68 -97 0 -64 -78
-114 -144 -92 -50 16 -69 43 -69 95 0 49 14 72 58 91 37 16 41 16 87 3z
m11000 0 c42 -11 68 -48 68 -97 0 -64 -78 -114 -144 -92 -50 16 -69 43 -69 95
0 49 14 72 58 91 37 16 41 16 87 3z m6081 -30 c71 -77 -14 -193 -117 -159 -43
14 -63 36 -70 80 -18 101 115 157 187 79z m7350 0 c71 -77 -14 -193 -117 -159
-49 16 -69 43 -70 94 -1 34 5 50 23 70 43 45 119 43 164 -5z m2932 27 c39 -17
57 -45 57 -92 0 -72 -66 -115 -145 -93 -46 12 -67 42 -67 94 0 50 21 82 63 94
45 13 53 13 92 -3z m-21975 -124 c3 -70 1 -127 -4 -132 -15 -15 -36 9 -36 40
0 37 -38 92 -80 112 -30 15 -64 18 -222 18 l-188 0 0 -265 0 -265 148 0 c81 0
165 5 186 10 53 12 85 46 94 100 5 30 13 46 24 48 16 3 17 -15 20 -188 2 -108
-1 -195 -6 -200 -15 -15 -36 9 -36 40 0 15 -10 40 -22 55 -37 47 -72 55 -248
55 l-161 0 3 -272 c2 -200 7 -280 17 -299 16 -33 56 -56 110 -65 44 -7 59 -18
39 -30 -6 -4 -116 -7 -242 -6 -188 1 -232 4 -234 15 -2 9 8 17 25 20 40 8 80
48 92 93 17 62 15 1095 -2 1137 -17 40 -38 58 -80 66 -19 4 -33 14 -35 24 -3
16 24 17 415 15 l418 -3 5 -123z m8469 114 c8 -9 11 -54 9 -132 -2 -96 -6
-119 -18 -119 -8 0 -17 15 -22 38 -25 120 -61 136 -305 137 l-183 0 0 -266 0
-266 168 4 c214 5 242 18 258 118 5 30 11 40 23 38 14 -3 16 -27 16 -198 0
-160 -3 -195 -14 -195 -8 0 -19 19 -26 48 -24 94 -55 107 -272 107 l-153 0 0
-274 c0 -304 -1 -299 65 -312 19 -3 99 -4 177 -2 110 3 150 8 175 21 38 20 64
65 72 122 5 31 10 40 26 40 18 0 19 -6 16 -130 -1 -71 -4 -131 -4 -132 -1 -1
-191 -3 -422 -4 -389 -3 -420 -2 -423 14 -2 11 3 17 15 17 30 0 81 37 100 72
17 31 18 73 18 588 0 529 -1 556 -19 587 -19 30 -53 53 -80 53 -17 0 -38 25
-29 33 3 4 190 7 413 7 336 0 410 -2 419 -14z m-12971 -298 l3 -108 167 -2
167 -3 0 -40 0 -40 -168 -3 -168 -2 3 -345 c3 -329 4 -345 24 -371 11 -15 32
-36 46 -47 35 -26 138 -33 202 -13 52 16 66 14 66 -9 0 -40 -143 -95 -249 -95
-129 0 -206 42 -248 135 -16 36 -18 79 -21 393 l-3 352 -52 0 c-90 0 -94 19
-14 59 57 29 114 90 169 184 59 99 72 91 76 -45z m6622 2 l0 -110 163 0 c171
0 187 -4 187 -45 0 -41 -16 -45 -188 -45 l-164 0 4 -332 c3 -323 4 -334 26
-375 12 -24 36 -50 54 -59 46 -24 143 -29 203 -10 94 29 72 -30 -28 -75 -43
-19 -70 -23 -157 -24 -91 0 -112 3 -153 24 -55 27 -91 75 -106 141 -6 26 -11
187 -11 377 l0 332 -62 3 c-81 4 -81 19 -3 62 61 33 117 95 177 199 46 78 58
65 58 -63z m20730 0 l0 -110 163 0 c171 0 187 -4 187 -45 0 -41 -16 -45 -188
-45 l-163 0 3 -337 c3 -318 4 -340 23 -373 41 -70 139 -96 254 -66 45 12 53
11 58 -1 8 -20 -22 -48 -80 -74 -44 -20 -69 -23 -162 -24 -119 0 -150 10 -208
63 -56 53 -62 100 -60 474 l2 337 -61 3 c-37 2 -63 8 -65 15 -3 7 18 23 45 37
58 29 129 105 180 193 23 39 44 63 55 63 15 0 17 -12 17 -110z m-30474 -111
c127 -39 221 -137 263 -274 63 -202 18 -435 -108 -568 -61 -64 -125 -101 -212
-122 -178 -41 -359 4 -465 117 -187 200 -152 623 65 782 62 46 109 65 196 82
82 15 175 9 261 -17z m4350 5 c68 -18 126 -74 150 -145 17 -48 19 -87 19 -360
0 -291 1 -308 20 -329 15 -16 29 -21 60 -19 66 4 72 -8 28 -53 -91 -93 -249
-80 -270 22 l-6 30 -40 -36 c-118 -107 -322 -112 -423 -11 -85 86 -88 254 -6
340 59 63 141 86 325 94 l137 6 0 121 c0 106 -3 127 -22 166 -32 63 -83 90
-168 90 -79 0 -130 -22 -182 -76 -29 -29 -41 -35 -49 -27 -26 26 51 132 122
168 82 43 195 50 305 19z m24246 1 c64 -22 121 -75 147 -135 31 -72 41 -180
41 -458 0 -198 3 -248 15 -272 16 -30 61 -60 90 -60 10 0 15 -7 13 -17 -3 -15
-24 -16 -213 -15 -171 1 -211 4 -213 15 -2 9 8 17 25 20 43 8 81 44 93 85 13
48 13 523 -1 582 -5 25 -21 62 -35 83 -60 91 -217 114 -352 52 l-64 -29 7 -35
c4 -20 10 -175 13 -346 5 -205 11 -317 19 -330 16 -29 44 -51 78 -62 17 -5 30
-16 30 -23 0 -10 -43 -13 -215 -12 -142 0 -215 4 -215 11 0 6 20 21 45 33 75
39 81 57 87 295 9 359 -12 452 -117 506 -51 27 -61 28 -145 24 -52 -3 -108
-12 -132 -22 l-43 -17 0 -349 c0 -391 2 -407 62 -433 18 -8 41 -17 51 -20 10
-3 17 -11 15 -18 -5 -14 -431 -14 -436 1 -2 5 17 19 42 30 28 12 53 33 66 53
19 31 20 49 20 376 0 242 -3 350 -12 365 -16 31 -37 45 -80 52 -29 5 -38 12
-38 26 0 16 8 19 48 19 44 1 162 19 225 35 l27 7 0 -55 0 -56 51 35 c158 106
401 95 497 -22 l29 -34 39 31 c123 98 296 131 436 84z m-26302 -405 c0 -332 3
-428 14 -453 12 -31 42 -50 109 -71 10 -3 17 -11 15 -18 -6 -16 -453 -14 -453
2 0 7 17 18 38 25 47 16 64 30 84 69 14 26 16 79 17 361 1 397 2 392 -99 423
-16 5 -30 15 -30 23 0 10 23 16 90 22 50 4 113 14 140 21 28 7 56 14 63 15 9
1 12 -89 12 -419z m3333 405 c16 -7 17 -20 15 -114 -3 -90 -6 -106 -20 -109
-12 -2 -20 7 -27 36 -23 85 -92 131 -196 132 -102 0 -165 -53 -165 -138 0 -73
41 -115 214 -217 141 -83 198 -140 216 -216 36 -148 -42 -281 -188 -326 -94
-29 -335 -19 -388 15 -7 4 -13 51 -15 122 -3 93 -1 115 10 115 8 0 19 -18 26
-41 6 -22 20 -55 31 -73 60 -102 299 -111 357 -12 24 41 23 127 -3 166 -11 17
-90 77 -177 135 -188 125 -215 158 -221 270 -5 84 10 131 56 182 39 43 72 63
129 78 42 10 318 7 346 -5z m2682 -342 c0 -352 0 -359 23 -408 48 -103 101
-130 244 -123 56 3 110 12 136 23 l42 17 0 345 c0 243 -3 351 -12 366 -16 31
-37 45 -80 52 -29 5 -38 12 -38 26 0 16 8 19 53 19 48 1 165 18 228 35 l26 7
-1 -419 c-1 -384 0 -421 17 -446 9 -15 30 -29 45 -33 100 -21 87 -48 -29 -58
-44 -4 -105 -14 -135 -22 -30 -8 -57 -14 -59 -14 -3 0 -5 24 -5 54 l0 55 -51
-35 c-160 -107 -425 -98 -512 18 -55 73 -60 108 -66 438 -7 350 -7 351 -86
372 -30 8 -45 18 -45 29 0 13 16 17 88 23 48 3 112 12 142 20 30 8 60 14 65
15 7 1 10 -124 10 -356z m2435 345 c0 -7 1 -173 2 -368 l3 -355 31 -55 c47
-83 90 -102 219 -98 77 3 111 8 148 25 l48 22 -3 344 c-3 393 -2 386 -85 409
-29 8 -48 19 -48 28 0 12 21 17 90 23 50 4 117 14 149 22 32 9 61 14 63 12 2
-2 4 -193 6 -424 2 -477 -2 -453 84 -475 32 -8 43 -15 41 -27 -3 -12 -22 -18
-83 -24 -44 -4 -107 -14 -140 -22 -33 -7 -64 -10 -69 -5 -4 4 -7 27 -4 49 4
48 -2 50 -45 17 -105 -79 -298 -102 -427 -50 -51 20 -113 90 -129 145 -21 69
-30 209 -31 442 0 257 -3 268 -77 289 -29 8 -48 19 -48 28 0 12 21 17 90 23
50 4 113 14 140 21 66 18 75 18 75 4z m1474 -4 c3 -9 6 -36 6 -61 l0 -45 46
41 c90 79 248 95 325 32 l22 -18 -33 -62 c-19 -35 -40 -65 -47 -68 -8 -3 -24
4 -36 15 -59 53 -169 70 -242 35 l-35 -17 0 -325 c0 -198 4 -341 11 -364 12
-45 52 -73 116 -83 45 -7 61 -18 42 -30 -19 -11 -474 -7 -474 5 0 6 20 21 44
33 89 45 86 32 86 427 0 398 2 389 -82 413 -78 22 -64 42 37 51 47 4 108 13
135 21 68 18 72 18 79 0z m1076 -404 c0 -332 3 -428 14 -453 12 -31 42 -50
109 -71 10 -3 17 -11 15 -18 -5 -15 -451 -14 -456 2 -2 5 5 13 15 16 53 16 85
37 103 66 19 31 20 51 20 376 0 239 -3 350 -11 365 -14 26 -33 39 -79 52 -19
6 -35 17 -35 25 0 12 21 17 90 23 50 4 113 14 140 21 28 7 56 14 63 15 9 1 12
-89 12 -419z m818 394 c45 -29 55 -107 22 -161 -26 -43 -84 -61 -140 -44 -52
15 -75 51 -74 113 0 39 6 54 29 78 15 16 37 31 49 33 32 7 88 -3 114 -19z
m4331 16 c64 -12 148 -47 155 -65 6 -16 -70 -125 -86 -125 -6 0 -27 18 -46 40
-52 62 -102 83 -192 83 -181 0 -270 -123 -270 -377 0 -213 60 -336 195 -398
42 -19 66 -23 155 -23 87 0 113 4 154 23 54 24 80 17 60 -16 -18 -29 -103 -81
-163 -100 -85 -26 -248 -23 -323 6 -109 44 -188 129 -230 251 -31 89 -33 286
-4 371 60 177 164 283 317 324 63 17 204 20 278 6z m891 -410 c0 -332 3 -428
14 -453 12 -31 42 -50 109 -71 10 -3 17 -11 15 -18 -6 -16 -453 -14 -453 2 0
7 17 18 38 25 96 33 97 39 97 440 0 233 -4 343 -11 358 -14 26 -33 39 -79 52
-19 6 -35 17 -35 25 0 12 21 17 90 23 50 4 113 14 140 21 28 7 56 14 63 15 9
1 12 -89 12 -419z m2597 391 c116 -51 184 -168 186 -321 l2 -85 -309 -3 -309
-2 6 -88 c9 -153 71 -263 181 -319 43 -23 67 -28 151 -31 87 -4 110 -1 173 20
61 21 75 23 79 11 14 -36 -108 -111 -216 -134 -79 -16 -223 -6 -293 20 -142
55 -219 165 -249 359 -17 113 11 284 63 386 45 89 149 174 246 202 73 21 225
13 289 -15z m933 -32 l0 -61 37 32 c60 53 118 74 203 75 81 0 150 -24 150 -52
0 -17 -56 -119 -70 -128 -5 -3 -30 9 -55 27 -41 29 -55 33 -123 36 -64 3 -83
0 -110 -18 l-34 -21 4 -337 c3 -247 8 -344 17 -363 17 -34 55 -55 114 -64 36
-6 47 -11 45 -23 -3 -14 -32 -15 -238 -14 -191 1 -236 4 -238 15 -2 9 9 17 28
21 45 8 88 58 95 109 3 23 5 188 3 365 l-3 324 -28 23 c-15 13 -43 27 -62 31
-24 4 -35 12 -35 24 0 14 13 18 83 24 45 3 107 13 137 20 84 21 80 23 80 -45z
m1324 44 c51 -14 71 -27 121 -77 76 -77 98 -134 99 -255 l1 -86 -307 -3 -308
-2 0 -55 c0 -174 82 -315 214 -364 80 -30 207 -29 299 3 52 17 70 20 77 10 17
-20 -71 -89 -148 -116 -96 -33 -280 -33 -364 1 -72 28 -161 107 -194 172 -76
151 -75 390 3 556 28 60 99 142 149 174 93 57 242 75 358 42z m2496 -403 c0
-332 3 -428 14 -453 12 -31 42 -50 109 -71 10 -3 17 -11 15 -18 -6 -16 -453
-14 -453 2 0 7 17 18 38 25 96 33 97 39 97 439 0 232 -4 343 -12 360 -7 17
-28 32 -62 45 -78 29 -67 45 39 54 50 4 113 14 140 21 28 7 56 14 63 15 9 1
12 -89 12 -419z m2962 4 c-1 -302 2 -418 11 -444 14 -39 67 -80 104 -80 17 0
24 -5 21 -17 -3 -15 -25 -16 -223 -15 -189 1 -220 4 -223 17 -2 9 3 15 13 15
33 0 86 33 103 64 15 28 17 70 17 376 0 396 1 391 -80 411 -32 8 -45 17 -45
29 0 14 14 18 88 24 48 3 112 12 142 20 30 7 59 13 64 12 6 -1 9 -171 8 -412z
m2107 397 c145 -45 229 -182 219 -356 l-3 -60 -309 -3 -309 -2 7 -79 c16 -192
93 -306 234 -347 91 -27 229 -14 333 30 11 5 19 1 23 -11 15 -36 -101 -108
-212 -132 -105 -22 -235 -10 -329 30 -53 23 -127 90 -159 144 -36 62 -64 185
-64 281 0 257 112 445 299 505 76 24 192 24 270 0z m1234 4 c15 -6 17 -22 17
-116 0 -100 -2 -109 -19 -109 -13 0 -20 10 -25 31 -17 88 -89 139 -195 139
-110 0 -161 -45 -161 -141 0 -78 20 -100 186 -199 165 -100 186 -117 218 -182
47 -94 32 -215 -35 -292 -72 -82 -225 -121 -385 -98 -48 7 -102 19 -120 27
l-33 13 -3 104 c-2 70 1 107 9 117 10 12 13 10 21 -10 47 -120 72 -150 140
-169 109 -30 227 1 264 70 24 43 20 119 -8 158 -11 15 -76 63 -144 107 -164
106 -233 174 -250 244 -33 140 38 271 167 307 50 15 320 14 356 -1z m-31950
-19 c-1 -5 -21 -17 -45 -26 -41 -15 -43 -18 -46 -59 -3 -35 15 -90 96 -299 55
-142 105 -274 112 -295 6 -21 13 -37 15 -35 2 2 55 132 119 290 141 348 144
372 54 403 -63 21 -26 30 139 33 93 1 171 -2 176 -7 6 -6 -8 -17 -36 -29 -56
-25 -52 -18 -282 -532 -92 -206 -172 -381 -178 -388 -6 -7 -24 -12 -41 -10
l-31 3 -170 427 c-94 236 -178 441 -188 457 -10 17 -32 34 -52 41 -19 6 -35
18 -35 26 0 12 31 14 198 12 115 -2 196 -7 195 -12z m15882 4 c3 -5 -12 -18
-35 -30 -36 -19 -40 -24 -40 -59 0 -33 12 -56 76 -143 42 -57 80 -107 84 -111
8 -9 135 184 153 232 13 36 -10 77 -48 87 -14 3 -25 12 -25 20 0 11 31 14 165
14 180 0 200 -7 125 -45 -31 -15 -73 -62 -176 -195 -80 -103 -133 -181 -131
-190 7 -25 323 -445 353 -469 15 -11 35 -21 46 -21 13 0 18 -6 16 -17 -3 -14
-24 -16 -203 -15 -210 1 -232 6 -165 40 29 14 35 23 38 55 4 41 7 35 -126 216
l-84 113 -79 -122 c-102 -156 -111 -174 -107 -213 2 -25 11 -36 38 -49 66 -34
45 -40 -130 -40 -138 0 -165 2 -168 15 -2 9 7 17 23 21 15 4 40 21 57 39 28
31 297 379 312 404 4 8 -52 90 -144 213 -117 156 -159 204 -190 220 -23 12
-38 25 -35 30 4 6 87 10 200 10 113 0 196 -4 200 -10z m-2818 -751 c58 -21 70
-137 19 -188 -23 -22 -35 -26 -86 -26 -52 0 -63 4 -87 27 -23 24 -27 36 -27
82 0 44 4 60 24 81 39 41 89 49 157 24z"/>
<path d="M4663 7453 c-10 -4 -13 -407 -13 -1971 l0 -1967 1790 -1138 c1813
-1153 1839 -1168 1828 -1108 -4 21 -3580 6191 -3588 6190 -3 0 -11 -3 -17 -6z"/>
<path d="M2575 4483 c-946 -1632 -1754 -3027 -1797 -3100 -135 -233 -298 -324
1760 984 l1802 1146 -2 1966 c-3 1958 -3 1966 -23 1969 -17 2 -286 -456 -1740
-2965z"/>
<path d="M4650 2772 l0 -397 173 -106 c94 -59 312 -191 482 -294 552 -335 807
-503 1105 -729 220 -167 374 -248 570 -301 189 -50 267 -57 735 -65 396 -6
441 -6 453 9 7 8 11 22 10 30 -2 10 -2920 1872 -3480 2221 l-48 30 0 -398z"/>
<path d="M4315 3151 c-6 -5 -791 -505 -1745 -1110 -954 -606 -1736 -1105
-1738 -1110 -3 -8 130 -26 323 -42 153 -12 667 -11 761 2 43 6 99 18 124 28
47 18 583 355 1410 886 272 174 584 374 692 444 l198 126 0 393 c0 215 -4 392
-8 392 -4 0 -12 -4 -17 -9z"/>
<path d="M3575 1544 c-506 -327 -926 -598 -934 -603 -8 -5 -11 -16 -6 -30 l6
-21 1865 0 1864 0 0 24 c0 21 -123 103 -935 625 -514 331 -936 601 -938 600
-1 0 -416 -268 -922 -595z"/>
<path d="M52386 6394 c-45 -115 -476 -1286 -476 -1294 0 -7 149 -10 460 -10
253 0 460 1 460 3 0 2 -74 218 -164 481 -91 263 -186 548 -211 634 -68 231
-60 209 -69 186z"/>
<path d="M36165 7060 c-473 -72 -781 -454 -894 -1110 -35 -201 -45 -338 -45
-615 0 -350 21 -550 85 -806 139 -559 432 -896 843 -968 76 -14 282 -14 366 0
164 26 336 110 458 224 310 288 462 784 462 1504 0 379 -42 684 -130 954 -133
404 -363 675 -662 778 -46 16 -115 33 -153 39 -80 11 -256 11 -330 0z"/>
<path d="M28550 7062 l-55 -7 -3 -891 -2 -892 147 -7 c450 -23 659 90 776 421
83 233 97 624 32 880 -62 244 -200 403 -409 470 -73 24 -99 27 -256 29 -96 2
-200 0 -230 -3z"/>
<path d="M56410 7061 l-55 -6 -3 -891 -2 -892 145 -7 c382 -19 570 50 700 259
87 140 130 300 145 539 34 556 -126 886 -476 983 -64 18 -352 27 -454 15z"/>
<path d="M72700 7061 l-55 -6 -3 -891 -2 -892 146 -7 c242 -12 372 7 496 72
164 86 277 270 323 529 22 121 31 404 16 528 -17 146 -37 219 -93 334 -38 81
-63 117 -111 165 -68 68 -167 125 -262 152 -65 18 -352 29 -455 16z"/>
<path d="M50800 1481 c-125 -41 -192 -140 -210 -313 -23 -229 38 -386 178
-455 51 -25 68 -28 157 -28 73 0 113 5 148 18 l47 19 -2 351 -3 352 -55 30
c-48 25 -67 29 -145 32 -49 1 -101 -1 -115 -6z"/>
<path d="M30225 1477 c-125 -60 -184 -212 -172 -447 8 -171 54 -281 146 -345
37 -26 53 -30 121 -33 71 -4 84 -1 130 24 99 54 148 164 157 350 14 288 -84
458 -272 471 -49 3 -70 0 -110 -20z"/>
<path d="M34671 1019 c-113 -19 -171 -78 -171 -174 0 -68 26 -114 81 -143 37
-20 54 -23 111 -18 37 2 88 14 113 25 l45 20 0 150 0 151 -62 -1 c-35 -1 -87
-5 -117 -10z"/>
<path d="M52155 1488 c-80 -28 -132 -109 -142 -217 l-6 -61 218 0 218 0 -7 71
c-9 104 -43 164 -109 195 -56 26 -120 30 -172 12z"/>
<path d="M54425 1476 c-28 -14 -61 -41 -74 -61 -27 -40 -51 -122 -51 -172 l0
-33 216 0 217 0 -5 69 c-10 138 -72 209 -190 218 -53 4 -71 1 -113 -21z"/>
<path d="M61995 1481 c-73 -34 -117 -106 -130 -213 l-6 -58 217 0 217 0 -5 73
c-5 75 -29 137 -66 170 -51 46 -159 60 -227 28z"/>
</g>
</svg>
