<?xml version="1.0" standalone="no"?>
<!DOCTYPE svg PUBLIC "-//W3C//DTD SVG 20010904//EN"
 "http://www.w3.org/TR/2001/REC-SVG-20010904/DTD/svg10.dtd">
<svg version="1.0" xmlns="http://www.w3.org/2000/svg"
 width="7868.000000pt" height="836.000000pt" viewBox="0 0 7868.000000 836.000000"
 preserveAspectRatio="xMidYMid meet">

<g transform="translate(0.000000,836.000000) scale(0.100000,-0.100000)"
fill="#000000" stroke="none">
<path d="M0 4180 l0 -4180 39340 0 39340 0 0 4180 0 4180 -37091 0 -37091 0
25 -42 c409 -701 4467 -7704 4467 -7710 0 -4 -2021 -8 -4491 -8 -4273 0 -4491
1 -4487 18 3 9 1011 1753 2242 3876 1230 2122 2236 3860 2236 3862 0 2 -1010
4 -2245 4 l-2245 0 0 -4180z m52885 3193 c3 -10 249 -704 547 -1543 774 -2185
794 -2237 905 -2329 42 -35 111 -61 160 -61 l33 0 0 -60 0 -61 -137 8 c-179
10 -1107 10 -1285 0 l-138 -8 0 59 0 59 78 6 c127 10 212 50 238 113 18 43 18
134 -1 204 -8 30 -92 279 -187 553 l-172 497 -562 0 c-526 0 -562 -1 -569 -17
-30 -79 -316 -863 -347 -953 -96 -280 -48 -373 204 -398 l73 -7 3 -58 3 -58
-138 8 c-173 10 -762 10 -905 1 l-108 -8 0 59 0 58 54 6 c113 11 203 87 279
235 68 131 170 373 842 2002 339 822 630 1527 646 1566 l29 70 198 36 c234 43
248 44 257 21z m-16205 -44 c203 -22 430 -79 607 -155 591 -253 953 -756 1049
-1459 24 -176 24 -521 0 -695 -35 -260 -97 -472 -196 -679 -250 -517 -684
-864 -1255 -1001 -216 -52 -327 -64 -590 -64 -260 0 -388 13 -590 61 -802 189
-1299 780 -1386 1647 -15 154 -6 536 15 666 42 247 98 433 190 626 302 630
881 1004 1648 1064 125 9 361 4 508 -11z m41220 0 c137 -9 376 -34 430 -45
l25 -4 0 -385 0 -385 -65 0 -65 0 -13 68 c-20 107 -71 204 -149 281 -79 77
-154 120 -275 155 -249 72 -596 52 -778 -45 -163 -87 -250 -248 -250 -464 0
-216 80 -363 275 -510 41 -30 220 -143 400 -250 179 -107 365 -222 414 -254
386 -260 545 -507 582 -906 22 -239 -17 -469 -111 -655 -45 -89 -81 -141 -157
-221 -189 -200 -455 -322 -838 -386 -155 -25 -698 -25 -890 0 -155 21 -354 60
-427 85 l-53 17 -6 240 c-3 132 -10 304 -14 383 l-8 142 67 0 c60 0 66 -2 70
-22 45 -232 104 -343 231 -433 128 -92 282 -134 520 -142 320 -12 542 52 686
196 113 113 163 247 162 436 -1 174 -49 305 -157 422 -83 91 -169 152 -493
354 -522 324 -657 428 -797 619 -177 240 -241 630 -155 941 105 381 419 644
879 738 98 20 241 39 345 45 89 5 449 -3 615 -15z m-65895 -29 l1310 -5 6
-350 c4 -192 10 -369 14 -392 l7 -43 -71 0 -71 0 0 33 c0 52 -37 183 -67 238
-53 99 -163 171 -309 205 -56 14 -152 17 -506 21 l-438 5 0 -736 0 -736 323 0
c440 0 552 16 660 96 80 58 139 172 154 296 l8 63 65 3 65 3 0 -596 0 -596
-64 3 -65 3 -12 71 c-26 154 -107 266 -229 312 -114 44 -204 52 -567 52 l-340
0 5 -712 c5 -758 8 -813 55 -904 55 -107 175 -163 405 -190 l47 -5 0 -61 0
-60 -127 6 c-632 33 -1024 33 -1531 0 l-103 -6 3 58 3 59 55 8 c110 15 227 88
275 171 73 126 77 236 72 1856 -4 1452 -3 1429 -57 1542 -25 54 -79 107 -141
138 -33 17 -149 49 -181 50 -10 0 -10 104 -1 114 4 3 14 3 22 -1 9 -4 606 -10
1326 -13z m2393 -1 c303 -9 482 -9 780 0 213 7 395 15 405 17 15 5 17 -2 17
-54 l0 -60 -62 -11 c-122 -21 -228 -93 -272 -184 -61 -125 -59 -81 -64 -1367
-4 -1253 -1 -1341 43 -1519 38 -149 93 -251 184 -341 83 -82 155 -125 274
-164 221 -72 578 -75 802 -6 288 89 443 278 512 625 17 84 18 180 18 1350 0
1165 -1 1265 -17 1328 -42 161 -120 236 -288 273 l-70 16 0 59 c0 56 1 59 23
55 12 -3 156 -10 321 -17 230 -9 379 -9 650 0 193 7 359 15 369 17 15 5 17 -2
17 -54 l0 -60 -62 -11 c-133 -23 -247 -110 -287 -216 -42 -113 -43 -132 -51
-1295 -5 -732 -11 -1160 -19 -1225 -40 -355 -140 -587 -335 -780 -200 -199
-460 -314 -837 -371 -142 -21 -599 -30 -766 -15 -622 57 -982 257 -1180 656
-69 138 -102 260 -129 471 -14 110 -18 299 -24 1289 -8 1286 -5 1241 -73 1343
-47 69 -152 127 -269 147 l-38 6 0 60 c0 53 2 60 18 55 9 -2 194 -10 410 -17z
m8474 0 c301 -9 474 -9 777 1 215 7 398 13 408 14 15 1 18 -8 21 -55 l3 -55
-67 -13 c-120 -22 -230 -97 -278 -189 -60 -117 -68 -321 -63 -1602 4 -908 7
-1068 20 -1147 26 -147 45 -211 93 -310 123 -256 390 -383 804 -383 213 0 374
31 519 101 161 78 292 240 350 434 54 178 54 176 58 1360 5 1321 0 1444 -65
1571 -41 79 -138 141 -257 163 -32 6 -60 11 -62 11 -2 0 -3 26 -1 58 2 46 6
57 20 56 9 -1 154 -7 323 -14 245 -10 375 -10 655 0 192 7 358 13 367 14 15 1
19 -9 21 -55 l3 -55 -61 -12 c-120 -22 -224 -88 -275 -176 -67 -114 -74 -265
-75 -1447 0 -1089 -8 -1228 -81 -1451 -56 -172 -132 -300 -257 -430 -272 -283
-668 -408 -1297 -408 -585 0 -949 95 -1230 321 -156 125 -297 351 -350 561
-58 232 -57 213 -65 1488 -5 770 -11 1193 -18 1229 -28 139 -76 213 -171 264
-40 22 -155 56 -193 57 -10 0 -11 104 -1 113 4 4 14 5 22 3 9 -3 190 -10 403
-17z m4853 4 c224 -3 562 -1 795 6 452 14 715 5 918 -29 593 -101 932 -465
932 -1000 0 -181 -37 -348 -110 -500 -56 -115 -112 -190 -214 -288 -128 -123
-246 -194 -441 -267 -55 -20 -102 -38 -103 -40 -4 -3 392 -462 917 -1065 242
-277 407 -450 511 -533 91 -73 212 -133 286 -143 l54 -6 0 -58 0 -58 -117 -8
c-65 -5 -257 -9 -428 -9 -258 0 -325 3 -400 18 -309 61 -436 153 -730 527
-190 242 -592 780 -730 977 l-120 172 -129 1 -128 0 5 -577 c5 -594 11 -678
48 -779 36 -96 139 -170 274 -198 l60 -12 3 -57 3 -57 -188 8 c-242 9 -983 9
-1225 0 l-188 -8 0 60 c0 60 0 60 29 60 50 0 154 39 204 75 102 76 141 169
157 378 13 178 13 2745 0 2892 -19 207 -63 296 -179 359 -40 21 -156 55 -193
56 -10 0 -10 104 -1 114 4 3 14 4 22 1 9 -4 191 -9 406 -12z m4512 -4 c291 -9
474 -9 770 0 213 7 396 14 406 17 15 5 17 -2 17 -54 l0 -59 -79 -17 c-147 -31
-251 -126 -285 -260 -34 -130 -37 -299 -33 -1721 3 -1020 7 -1416 16 -1460 33
-171 127 -263 304 -299 l62 -13 3 -56 3 -57 -198 8 c-256 9 -1003 9 -1251 -1
l-193 -7 3 57 3 58 55 8 c123 17 231 91 280 191 63 127 62 107 67 1544 6 1608
1 1734 -73 1860 -44 75 -151 136 -276 157 l-38 6 0 60 0 61 28 -6 c15 -3 199
-11 409 -17z m7376 0 c242 -8 381 -8 575 1 141 6 264 13 273 16 11 3 266 -328
919 -1198 497 -661 934 -1249 972 -1307 l69 -106 -4 1060 c-4 1143 -4 1141
-57 1251 -24 50 -81 104 -141 134 -34 18 -150 49 -182 50 -4 0 -7 26 -5 58 2
44 6 57 19 56 362 -25 837 -27 1082 -5 l77 7 0 -57 0 -57 -62 -11 c-121 -21
-230 -97 -276 -192 -58 -119 -55 -39 -61 -1944 l-6 -1750 -172 0 -171 0 -1182
1569 c-649 863 -1199 1599 -1220 1635 l-40 66 0 -1195 c1 -1180 7 -1553 31
-1660 32 -151 134 -246 295 -273 l64 -11 0 -59 0 -58 -137 8 c-174 10 -805 10
-940 0 l-103 -7 0 59 0 58 59 7 c118 13 241 100 287 201 50 109 49 87 49 1700
0 1418 -1 1514 -18 1580 -30 117 -73 172 -172 222 -46 23 -94 39 -147 48 l-38
6 0 60 c0 56 1 59 23 55 12 -3 165 -10 340 -17z m8747 5 c947 0 1001 -2 1210
-35 417 -65 741 -284 870 -587 62 -146 75 -225 74 -452 -1 -187 -3 -213 -26
-301 -56 -206 -136 -350 -272 -485 -155 -154 -333 -249 -586 -314 -234 -60
-603 -68 -805 -17 l-50 12 0 62 0 63 140 4 c157 4 224 19 330 71 270 132 404
482 374 975 -26 435 -194 673 -522 741 -95 19 -359 26 -475 12 l-52 -6 3
-1626 c2 -1447 4 -1632 18 -1676 61 -193 189 -279 452 -301 l77 -7 0 -58 0
-59 -207 7 c-268 10 -1335 10 -1475 1 l-108 -8 0 59 0 58 59 7 c118 13 241
100 287 201 50 109 49 87 49 1695 0 1419 -1 1509 -18 1582 -11 47 -31 97 -50
125 -47 70 -152 128 -269 148 l-38 6 0 61 0 60 28 -8 c15 -5 457 -9 982 -10z
m7230 -1 c226 -3 564 -1 790 6 703 21 1012 -12 1286 -139 347 -160 543 -452
561 -835 24 -527 -258 -931 -783 -1118 l-90 -32 533 -615 c553 -638 806 -914
921 -999 89 -67 180 -111 258 -124 l65 -11 -3 -56 -3 -55 -60 -6 c-33 -4 -190
-10 -350 -14 -699 -18 -867 51 -1229 505 -177 223 -646 850 -776 1037 l-105
152 -129 0 -128 1 5 -587 c5 -620 10 -684 54 -784 24 -53 98 -124 158 -150 24
-11 72 -25 107 -32 l63 -13 3 -57 3 -57 -188 7 c-241 10 -981 10 -1230 0
l-193 -7 0 55 c0 36 4 57 13 59 6 2 37 8 68 14 117 22 219 93 264 186 59 122
58 83 62 1591 4 1447 1 1615 -37 1737 -36 116 -129 194 -267 223 -37 8 -71 15
-75 15 -10 0 -10 104 -1 114 4 3 14 4 22 1 9 -4 194 -9 411 -12z m7763 -4
c242 -8 381 -8 575 1 141 6 264 13 273 16 11 3 269 -333 926 -1208 501 -667
939 -1256 972 -1308 l62 -95 -4 1055 c-4 1135 -5 1147 -57 1255 -24 50 -81
105 -141 135 -34 18 -150 49 -182 50 -4 0 -7 26 -5 58 2 44 6 57 19 56 362
-25 837 -27 1082 -5 l77 7 0 -57 0 -57 -62 -11 c-133 -23 -247 -110 -287 -216
-45 -119 -44 -90 -50 -1920 l-6 -1750 -172 0 -172 0 -1167 1550 c-642 853
-1192 1588 -1221 1635 l-54 85 4 -1365 c5 -1390 6 -1427 44 -1548 33 -107 144
-192 280 -215 l63 -11 0 -59 0 -58 -137 8 c-174 10 -805 10 -940 0 l-103 -7 0
59 0 58 57 7 c137 16 264 118 303 244 12 37 25 112 31 167 15 154 6 2984 -10
3053 -39 168 -138 255 -323 287 l-38 6 0 60 c0 56 1 59 23 55 12 -3 165 -10
340 -17z m5753 3 l1311 -4 6 -351 c4 -194 10 -371 13 -394 l7 -43 -72 0 -71 0
0 38 c0 60 -28 161 -62 224 -57 106 -163 180 -309 213 -62 15 -147 18 -511 22
l-438 5 0 -737 0 -737 383 5 c408 5 438 8 544 58 122 58 186 164 218 362 l6
37 62 0 62 0 0 -595 0 -595 -62 0 c-57 0 -63 2 -67 23 -22 114 -31 149 -52
193 -46 98 -127 159 -260 196 -73 20 -106 22 -457 26 l-378 3 3 -738 c3 -732
3 -738 25 -785 43 -93 103 -108 438 -108 348 0 494 20 618 82 142 71 212 179
247 383 l17 100 64 0 c58 0 64 -2 61 -20 -1 -11 -5 -202 -9 -423 -4 -279 -9
-405 -17 -408 -6 -2 -615 -5 -1354 -6 l-1342 -3 0 53 c0 34 5 54 13 56 6 2 38
8 71 14 116 22 215 93 261 186 60 122 58 81 62 1606 4 1462 1 1598 -38 1726
-35 114 -127 190 -266 219 -37 8 -71 15 -75 15 -10 0 -10 104 -1 114 4 3 14 3
22 -1 9 -4 606 -9 1327 -11z m2909 4 c281 -1 690 1 910 3 491 6 649 -9 875
-81 359 -114 594 -346 682 -673 78 -290 17 -657 -151 -903 -128 -190 -340
-342 -599 -432 -83 -29 -91 -34 -79 -49 165 -194 1036 -1195 1128 -1297 262
-288 402 -393 570 -428 l64 -13 0 -54 0 -54 -70 -8 c-38 -5 -234 -9 -435 -10
-349 -2 -370 -1 -470 21 -186 41 -318 108 -444 223 -118 108 -734 908 -1040
1352 l-68 97 -125 0 -124 0 4 -607 c4 -660 7 -695 62 -788 46 -79 138 -136
256 -158 l59 -12 0 -57 0 -58 -187 8 c-244 9 -974 9 -1220 -1 l-193 -7 0 59 0
58 59 7 c118 13 241 100 287 201 50 109 49 87 49 1700 0 1418 -1 1514 -18
1580 -30 117 -73 172 -172 222 -46 23 -94 39 -147 48 l-38 6 0 59 0 60 33 -7
c17 -4 262 -7 542 -7z m-50164 -371 c3 -198 9 -375 13 -392 l8 -33 -71 0 c-71
0 -71 0 -71 28 0 50 -30 166 -55 218 -40 81 -97 139 -178 179 -118 58 -175 66
-515 72 l-303 6 4 -1589 c4 -1687 3 -1664 50 -1775 48 -115 172 -177 410 -205
l47 -5 0 -60 0 -59 -182 7 c-237 10 -1245 10 -1501 0 l-198 -7 3 57 3 58 69 8
c207 22 346 98 398 214 52 119 51 76 55 1776 l4 1577 -228 0 c-383 0 -514 -21
-634 -103 -100 -67 -158 -170 -180 -323 l-11 -74 -63 0 -62 0 4 383 c3 210 6
388 8 395 4 10 326 12 1587 10 l1583 -3 6 -360z m40532 13 c4 -194 10 -372 13
-395 l7 -43 -72 0 -71 0 0 38 c0 60 -28 161 -62 224 -38 71 -97 127 -175 167
-105 52 -177 62 -506 68 l-298 5 4 -1618 c3 -1751 0 -1664 55 -1770 51 -99
171 -154 395 -180 l47 -5 0 -60 0 -59 -182 7 c-237 10 -1269 10 -1505 0 l-183
-7 0 60 0 60 35 0 c107 0 287 59 354 116 48 41 96 134 112 219 9 44 13 479 16
1648 l4 1587 -228 0 c-380 0 -512 -21 -631 -100 -94 -63 -164 -183 -178 -308
-11 -97 -7 -92 -81 -92 l-66 0 6 93 c4 50 10 228 13 395 l7 302 1582 0 1582 0
6 -352z m-11088 -5521 c0 -803 -8 -738 98 -761 18 -4 27 -13 27 -26 0 -17 -7
-20 -42 -20 -38 -1 -132 -15 -225 -35 l-33 -7 0 51 0 52 -29 -21 c-220 -156
-534 -85 -642 144 -41 86 -52 155 -46 276 8 165 50 262 153 361 65 61 139 100
226 119 59 13 286 9 321 -5 18 -7 19 1 15 202 -3 230 -10 256 -66 269 -55 12
-62 16 -62 33 0 16 13 19 93 25 50 3 115 13 142 20 28 8 55 15 60 15 7 1 10
-236 10 -692z m5025 7 c0 -374 3 -694 6 -711 9 -44 38 -71 90 -85 28 -8 44
-18 44 -28 0 -13 -29 -15 -230 -15 -198 0 -230 2 -230 15 0 9 19 21 47 30 70
23 84 49 95 177 5 59 8 340 6 623 -3 540 -4 545 -47 577 -9 6 -33 14 -54 17
-29 5 -38 11 -35 24 3 14 20 18 93 25 50 4 113 14 140 22 28 7 56 13 63 12 10
-2 13 -136 12 -683z m-27938 518 c26 -27 767 -981 789 -1016 20 -31 20 -31 17
439 -3 421 -5 473 -20 501 -16 29 -38 43 -96 59 -13 4 -22 13 -20 22 3 12 34
15 196 16 170 2 192 0 192 -14 0 -10 -15 -20 -38 -27 -53 -16 -80 -49 -92
-111 -6 -33 -10 -287 -10 -642 l0 -589 -38 0 c-38 0 -39 1 -254 278 -119 152
-316 405 -437 561 l-222 283 3 -503 c3 -567 -1 -538 81 -567 28 -10 47 -23 47
-32 0 -13 -26 -15 -192 -13 -152 1 -194 4 -196 15 -1 8 16 19 45 28 28 9 55
26 67 43 21 28 21 37 21 607 l0 578 -24 26 c-14 15 -42 31 -63 36 -33 9 -48
27 -34 41 2 2 62 3 133 1 104 -3 131 -7 145 -20z m4366 17 c98 -34 73 -182
-33 -195 -101 -13 -165 107 -92 173 37 34 72 41 125 22z m11000 0 c98 -34 73
-182 -33 -195 -101 -13 -165 107 -92 173 37 34 72 41 125 22z m6047 -4 c61
-30 73 -104 26 -157 -26 -29 -35 -33 -80 -33 -41 0 -55 5 -77 26 -89 89 15
219 131 164z m7350 0 c61 -30 73 -104 26 -157 -26 -29 -35 -33 -80 -33 -41 0
-55 5 -77 26 -89 89 15 219 131 164z m2971 -4 c70 -43 63 -146 -12 -177 -77
-32 -154 11 -154 86 0 53 14 78 53 95 44 20 77 18 113 -4z m-21984 -106 c1
-63 2 -123 2 -132 1 -12 -6 -18 -19 -18 -15 0 -21 9 -27 44 -9 52 -28 84 -65
108 -23 15 -56 18 -225 21 l-198 4 0 -266 0 -266 143 0 c78 1 162 5 186 9 59
12 92 47 98 105 5 36 9 46 24 46 18 0 19 -11 21 -180 1 -99 2 -188 2 -197 1
-12 -6 -18 -19 -18 -15 0 -21 9 -27 44 -9 53 -39 88 -87 101 -20 5 -105 10
-189 10 l-154 0 4 -272 c3 -204 7 -280 17 -300 16 -31 59 -54 120 -64 31 -5
41 -11 39 -22 -3 -14 -33 -16 -248 -15 -242 2 -290 9 -223 33 54 20 75 34 91
65 15 27 17 87 17 597 0 559 0 567 -21 595 -13 18 -35 31 -62 37 -30 7 -42 15
-42 28 0 17 22 18 420 18 l420 0 2 -115z m8476 -22 c2 -125 1 -133 -16 -133
-15 0 -21 10 -26 41 -9 59 -31 96 -69 116 -27 15 -64 19 -224 21 l-193 4 0
-267 0 -267 168 4 c215 6 238 17 257 121 5 27 12 37 26 37 18 0 19 -11 19
-200 0 -189 -1 -200 -19 -200 -15 0 -20 10 -26 45 -8 58 -39 94 -90 105 -22 5
-106 10 -187 10 l-148 0 0 -274 c0 -310 -2 -300 76 -312 83 -12 305 1 342 20
38 20 71 82 72 134 0 27 4 32 23 32 l24 0 -5 -132 c-2 -73 -5 -134 -6 -134 0
-1 -191 -4 -424 -5 -374 -4 -422 -2 -422 11 0 9 17 22 42 30 64 23 79 52 90
172 5 57 8 312 6 568 -3 439 -4 467 -22 497 -19 31 -48 48 -91 55 -11 2 -21
11 -23 21 -3 16 21 17 420 15 l423 -3 3 -132z m-12978 -173 l0 -110 170 0 170
0 0 -45 0 -45 -170 0 -170 0 0 -324 c0 -214 4 -334 11 -357 29 -86 116 -123
232 -100 89 18 91 18 95 0 9 -44 -130 -99 -246 -99 -132 0 -202 37 -246 130
-20 43 -21 63 -24 397 l-3 352 -61 3 c-34 2 -63 8 -65 14 -2 6 21 23 51 38 64
31 120 91 178 189 27 45 46 67 59 67 17 0 19 -9 19 -110z m6620 0 l0 -110 173
-2 172 -3 0 -40 0 -40 -173 -3 -174 -2 4 -328 c3 -310 4 -329 25 -374 13 -29
33 -52 52 -62 46 -24 137 -30 201 -12 41 11 57 11 62 3 12 -19 10 -21 -34 -50
-67 -44 -138 -60 -239 -55 -111 5 -169 36 -208 113 l-26 49 -3 358 -3 358 -64
0 c-85 0 -85 17 -2 62 63 35 117 95 179 201 46 78 58 65 58 -63z m20730 0 l0
-110 173 -2 172 -3 0 -40 0 -40 -173 -3 -173 -2 3 -333 c3 -286 5 -337 20
-369 32 -70 119 -100 229 -79 34 7 68 15 76 18 11 4 14 0 11 -18 -7 -52 -124
-99 -246 -99 -94 0 -142 14 -191 57 -72 61 -76 87 -74 481 l2 342 -65 0 c-80
0 -86 19 -15 54 57 30 128 106 179 193 23 39 44 63 55 63 15 0 17 -12 17 -110z
m-30483 -106 c75 -21 169 -89 214 -154 135 -196 111 -523 -50 -693 -87 -92
-198 -137 -341 -137 -295 0 -475 207 -457 526 17 305 224 498 512 478 39 -3
93 -12 122 -20z m4365 0 c61 -21 105 -61 135 -122 l28 -57 0 -316 c0 -301 1
-318 20 -339 15 -16 29 -21 62 -19 24 2 48 -2 53 -7 16 -16 -70 -91 -120 -104
-83 -22 -163 14 -176 80 l-7 30 -40 -36 c-67 -61 -118 -79 -227 -79 -78 0
-102 4 -135 22 -86 46 -126 116 -126 218 0 185 126 265 419 265 l102 0 0 123
c0 107 -3 128 -22 167 -31 60 -89 90 -173 90 -73 0 -127 -23 -177 -76 -29 -29
-41 -35 -49 -27 -29 29 58 139 137 175 90 39 206 44 296 12z m24230 6 c57 -16
120 -70 151 -127 38 -70 47 -161 47 -463 0 -287 4 -303 80 -331 25 -9 45 -23
45 -30 0 -10 -44 -13 -220 -12 -166 1 -220 5 -220 14 0 6 18 18 39 26 89 30
96 58 96 366 0 257 -8 323 -45 379 -40 61 -94 83 -200 83 -78 0 -98 -4 -153
-29 -62 -29 -64 -30 -57 -60 4 -17 10 -173 13 -346 4 -173 11 -322 16 -330 22
-36 52 -60 83 -66 21 -4 33 -12 33 -23 0 -14 -23 -16 -220 -16 -203 0 -220 1
-220 18 0 9 8 17 18 17 31 0 83 40 98 76 21 50 31 384 15 523 -14 127 -37 175
-101 211 -39 22 -57 25 -135 25 -61 0 -107 -6 -142 -18 l-53 -19 0 -351 c0
-410 0 -411 82 -437 29 -9 48 -21 48 -30 0 -13 -31 -15 -220 -15 -203 0 -220
1 -220 18 0 9 8 17 18 17 31 0 83 40 98 75 11 28 14 101 14 370 0 393 2 383
-87 406 -32 8 -43 16 -43 30 0 15 7 19 38 19 37 0 183 22 235 35 l27 7 0 -55
0 -56 50 34 c82 55 166 78 274 73 77 -3 99 -8 145 -33 29 -16 65 -44 80 -62
l28 -33 39 31 c48 39 147 87 205 99 52 11 168 6 221 -10z m-26292 -412 c-1
-475 -1 -474 69 -501 23 -10 48 -17 56 -17 8 0 15 -8 15 -17 0 -17 -18 -18
-230 -18 -198 0 -230 2 -230 15 0 9 19 21 47 30 78 25 86 45 96 228 9 184 0
538 -15 567 -14 27 -25 33 -75 46 -30 8 -43 17 -43 29 0 14 14 18 88 24 48 4
112 13 142 20 30 8 61 13 68 13 10 -2 13 -84 12 -419z m3338 408 c8 -5 12 -43
12 -117 0 -108 0 -110 -22 -107 -16 2 -24 12 -29 37 -16 79 -93 131 -194 131
-102 0 -165 -53 -165 -138 0 -73 41 -115 214 -217 173 -102 226 -169 226 -287
0 -110 -68 -206 -176 -249 -50 -19 -77 -23 -184 -23 -91 0 -141 4 -182 17
l-58 18 0 43 c0 24 -3 77 -6 119 -7 73 -6 77 13 77 16 0 22 -9 28 -37 11 -59
44 -108 89 -134 35 -20 55 -24 131 -24 103 0 144 17 170 71 21 46 19 122 -5
159 -11 17 -90 77 -177 135 -140 93 -162 111 -190 160 -29 47 -33 63 -33 125
1 118 56 199 162 237 45 16 75 18 209 15 85 -2 161 -7 167 -11z m2677 -333 c0
-367 3 -397 48 -464 51 -78 189 -102 331 -59 l66 21 0 338 c0 213 -4 349 -11
369 -10 30 -33 44 -91 58 -19 4 -28 13 -28 25 0 16 7 19 43 19 41 0 185 21
238 35 l27 7 -2 -414 c-1 -477 -3 -465 78 -485 56 -14 60 -17 53 -36 -4 -10
-31 -16 -84 -21 -43 -4 -106 -14 -141 -22 -35 -7 -65 -14 -68 -14 -2 0 -4 25
-4 56 l0 55 -33 -25 c-158 -121 -436 -117 -531 7 -55 72 -59 97 -65 432 -7
356 -7 356 -86 376 -33 8 -45 16 -45 30 0 16 8 19 43 19 47 0 216 26 225 34 3
3 12 6 21 6 14 0 16 -37 16 -347z m2438 -19 l2 -360 30 -59 c43 -84 78 -100
215 -100 87 0 113 4 153 22 l47 22 0 318 c0 175 -5 336 -10 358 -11 48 -36 70
-89 79 -31 5 -41 11 -41 25 0 16 12 19 87 25 48 3 116 13 151 21 36 9 67 14
69 12 2 -2 4 -194 6 -426 l2 -423 28 -24 c15 -13 36 -24 47 -24 32 0 50 -11
50 -31 0 -15 -7 -19 -37 -19 -35 0 -167 -20 -235 -36 -28 -6 -28 -6 -28 45 0
28 -2 51 -5 51 -3 0 -24 -14 -47 -30 -98 -71 -283 -95 -400 -50 -74 27 -128
88 -152 167 -15 47 -19 112 -23 348 -2 170 -9 302 -15 318 -12 32 -28 42 -80
51 -28 5 -38 12 -38 25 0 16 12 19 88 25 48 4 112 13 142 20 30 8 61 13 68 13
10 -2 13 -77 15 -363z m1475 303 l3 -58 45 40 c54 48 118 71 193 71 55 0 131
-26 145 -49 9 -13 -52 -131 -71 -138 -8 -3 -24 4 -36 15 -55 51 -172 68 -242
35 l-36 -17 3 -346 c2 -257 6 -351 16 -367 17 -30 56 -49 115 -58 36 -6 47
-11 45 -23 -3 -13 -35 -15 -245 -16 -218 -1 -243 1 -243 15 0 10 11 19 29 22
51 10 90 55 101 116 12 65 13 588 1 651 -11 52 -35 75 -90 84 -31 5 -41 11
-41 25 0 15 11 19 83 25 45 3 107 13 137 20 82 21 85 19 88 -47z m1072 -357
c0 -477 0 -476 69 -503 23 -10 48 -17 56 -17 8 0 15 -8 15 -17 0 -17 -18 -18
-230 -18 -198 0 -230 2 -230 15 0 9 19 21 47 30 28 9 55 26 67 43 20 27 21 43
24 370 2 188 0 352 -3 364 -8 33 -32 52 -81 64 -31 8 -44 17 -44 29 0 14 14
18 88 24 48 4 112 13 142 20 30 8 61 14 68 15 9 1 12 -89 12 -419z m794 406
c44 -18 66 -52 66 -99 0 -50 -23 -93 -60 -112 -90 -46 -190 20 -177 118 11 84
90 127 171 93z m4368 3 c56 -12 148 -54 148 -68 0 -14 -81 -121 -92 -121 -6 0
-28 20 -49 44 -49 55 -105 78 -189 79 -171 0 -258 -110 -268 -341 -10 -229 53
-372 191 -433 73 -33 226 -33 306 -1 41 16 58 19 68 10 11 -9 9 -16 -12 -38
-62 -65 -190 -110 -310 -110 -261 1 -425 181 -425 465 1 253 122 440 328 506
67 21 222 25 304 8z m878 -409 c0 -477 0 -476 69 -503 23 -10 48 -17 56 -17 8
0 15 -8 15 -17 0 -17 -18 -18 -230 -18 -198 0 -230 2 -230 15 0 9 19 21 47 30
28 9 55 26 67 43 20 27 21 43 24 370 2 188 0 352 -3 364 -8 33 -32 52 -81 64
-31 8 -44 17 -44 29 0 14 14 18 88 24 48 4 112 13 142 20 30 8 61 14 68 15 9
1 12 -89 12 -419z m2605 388 c114 -60 173 -161 182 -313 l6 -95 -312 0 -311 0
0 -55 c0 -166 74 -303 193 -356 45 -21 67 -24 167 -23 94 0 124 4 167 22 104
43 75 -32 -34 -88 -130 -67 -331 -68 -459 -2 -58 29 -130 106 -160 170 -93
196 -54 497 82 643 94 99 173 130 324 126 90 -3 112 -7 155 -29z m925 -29 l0
-61 35 31 c59 51 113 74 192 79 60 4 79 1 117 -18 25 -12 46 -28 46 -37 0 -18
-62 -133 -72 -133 -4 0 -28 15 -54 33 -42 30 -51 32 -128 32 -63 0 -88 -4
-110 -18 l-28 -19 4 -336 c4 -406 3 -399 121 -423 41 -8 57 -16 57 -28 0 -14
-25 -16 -242 -14 -257 2 -288 9 -199 42 31 11 51 27 65 51 20 33 21 50 21 386
0 399 3 384 -82 406 -30 7 -43 16 -43 28 0 14 13 18 78 24 42 4 102 13 132 20
92 23 90 24 90 -45z m1331 44 c41 -13 69 -32 115 -78 74 -73 94 -123 101 -252
l6 -93 -312 0 -311 0 0 -52 c0 -69 24 -166 54 -226 31 -60 78 -105 141 -134
43 -20 66 -23 165 -23 94 1 125 5 170 23 53 21 76 17 64 -12 -9 -20 -88 -74
-144 -97 -48 -20 -73 -23 -185 -23 -158 -1 -214 17 -301 96 -96 88 -137 199
-136 368 1 257 114 446 305 505 62 20 204 18 268 -2z m2489 -403 c0 -477 0
-476 69 -503 23 -10 48 -17 56 -17 8 0 15 -8 15 -17 0 -17 -18 -18 -230 -18
-198 0 -230 2 -230 15 0 9 19 21 47 30 28 9 55 26 67 43 20 27 21 43 24 360 2
183 0 346 -3 364 -8 43 -27 61 -81 74 -31 8 -44 17 -44 29 0 14 14 18 88 24
48 4 112 13 142 20 30 8 61 14 68 15 9 1 12 -89 12 -419z m2965 -9 c0 -419 0
-430 21 -458 12 -17 40 -35 70 -45 27 -9 49 -22 49 -29 0 -10 -49 -13 -230
-12 -177 1 -230 4 -230 14 0 7 15 17 34 21 18 5 44 16 56 24 47 31 50 56 50
419 0 309 -2 343 -18 368 -9 15 -30 29 -45 33 -56 12 -62 16 -62 35 0 16 7 19
43 19 47 0 216 26 225 34 3 3 12 6 21 6 14 0 16 -44 16 -429z m2103 414 c78
-23 144 -82 183 -161 29 -59 34 -79 37 -166 l4 -98 -312 0 -313 0 7 -75 c24
-261 150 -378 391 -362 45 3 104 14 135 26 52 20 69 17 70 -11 0 -15 -94 -78
-148 -100 -49 -19 -76 -22 -187 -22 -158 0 -215 18 -300 96 -93 85 -135 200
-135 372 0 247 108 430 293 497 65 23 203 25 275 4z m1242 1 c12 -5 14 -26 12
-116 -3 -96 -5 -110 -21 -110 -12 0 -20 13 -29 44 -21 81 -92 126 -196 126
-103 0 -156 -48 -156 -141 0 -78 20 -100 183 -198 167 -100 181 -112 217 -175
25 -42 30 -62 30 -116 0 -87 -13 -128 -56 -179 -68 -79 -194 -119 -343 -108
-78 6 -167 22 -187 35 -7 4 -13 51 -15 122 -4 102 -2 115 13 118 12 2 19 -5
23 -25 27 -122 93 -173 227 -173 121 0 183 52 183 152 0 78 -17 98 -165 193
-148 96 -230 172 -248 231 -41 138 28 277 158 319 34 11 83 14 200 11 85 -2
162 -6 170 -10z m-31952 -19 c2 -8 -15 -19 -45 -28 -46 -14 -48 -15 -51 -56
-2 -33 16 -91 91 -285 52 -133 102 -267 112 -296 9 -29 18 -52 20 -50 2 2 55
134 119 294 74 184 116 304 116 327 0 40 -20 59 -73 71 -19 5 -27 12 -25 23 2
9 6 16 11 15 4 -1 84 -2 177 -2 144 0 170 -2 170 -15 0 -8 -7 -15 -15 -15 -9
0 -30 -7 -47 -16 -35 -18 -66 -81 -298 -601 l-144 -323 -35 0 -36 0 -159 403
c-204 515 -200 506 -248 525 -22 9 -38 22 -38 31 0 14 22 16 197 14 158 -2
199 -5 201 -16z m16372 2 c0 -8 -17 -23 -38 -32 -28 -12 -68 -56 -171 -188
-74 -95 -136 -179 -138 -188 -4 -15 274 -400 335 -464 14 -15 40 -31 57 -35
16 -5 30 -14 30 -22 0 -11 -38 -14 -207 -14 -186 -1 -208 1 -208 15 0 10 11
20 27 24 41 10 53 24 53 62 0 38 -1 40 -128 212 l-84 113 -79 -122 c-98 -151
-109 -171 -109 -209 0 -32 30 -61 62 -61 10 0 18 -7 18 -17 0 -17 -14 -18
-172 -17 -182 1 -212 9 -141 39 21 9 48 28 60 43 33 39 298 385 307 399 4 8
-52 91 -145 214 -125 166 -158 204 -190 218 -21 9 -39 22 -39 29 0 9 48 12
205 12 157 0 205 -3 205 -12 0 -7 -18 -21 -40 -30 -37 -15 -40 -19 -40 -57 0
-34 11 -55 76 -143 42 -57 80 -107 84 -111 8 -9 135 184 151 231 13 39 -2 70
-42 84 -16 5 -29 17 -29 26 0 15 18 17 165 17 143 0 165 -2 165 -16z m-3308
-751 c27 -13 48 -62 48 -109 0 -34 -6 -47 -35 -76 -34 -34 -38 -35 -91 -31
-78 7 -109 38 -109 112 0 44 5 59 24 80 39 42 109 52 163 24z"/>
<path d="M52388 6399 c-3 -7 -112 -303 -243 -657 -131 -353 -236 -644 -233
-647 3 -3 210 -4 460 -3 l456 3 -170 495 c-93 272 -190 565 -214 650 -25 85
-46 159 -47 164 -2 6 -6 3 -9 -5z"/>
<path d="M36165 7060 c-199 -31 -379 -122 -517 -262 -221 -224 -354 -576 -409
-1088 -16 -148 -17 -601 -1 -750 75 -700 315 -1157 698 -1331 136 -62 202 -74
399 -74 198 1 280 16 410 74 455 206 695 781 695 1660 0 489 -77 885 -231
1196 -149 303 -351 480 -634 557 -82 22 -316 32 -410 18z"/>
<path d="M28575 7064 c-22 -2 -50 -7 -62 -9 l-23 -5 0 -889 0 -889 154 -7
c403 -19 602 69 726 320 77 156 112 346 113 605 1 343 -62 549 -213 701 -80
81 -152 123 -265 154 -59 16 -337 28 -430 19z"/>
<path d="M56435 7064 c-22 -2 -50 -7 -62 -9 l-23 -5 0 -889 0 -889 154 -7
c372 -18 561 53 689 256 103 163 149 374 148 684 0 181 -15 300 -53 415 -75
230 -218 373 -429 426 -63 15 -334 27 -424 18z"/>
<path d="M72705 7061 l-60 -6 -3 -891 -2 -892 149 -7 c309 -15 484 30 612 158
140 141 214 370 226 702 10 266 -21 447 -103 614 -78 159 -202 259 -379 307
-65 17 -333 27 -440 15z"/>
<path d="M50800 1481 c-97 -31 -169 -112 -194 -216 -17 -69 -24 -194 -15 -270
17 -140 75 -232 177 -282 51 -25 68 -28 157 -28 73 0 113 5 148 18 l47 19 -2
351 -3 352 -59 29 c-49 25 -73 30 -145 33 -47 1 -97 -1 -111 -6z"/>
<path d="M30248 1486 c-127 -47 -185 -160 -195 -376 -11 -236 65 -409 196
-448 66 -20 141 -15 199 14 97 48 150 163 159 344 12 225 -50 390 -169 451
-51 26 -142 33 -190 15z"/>
<path d="M34670 1016 c-119 -21 -170 -73 -170 -171 0 -62 26 -113 71 -140 45
-26 154 -26 224 1 l50 20 3 152 3 152 -58 -1 c-32 0 -87 -6 -123 -13z"/>
<path d="M52160 1489 c-19 -6 -47 -19 -62 -30 -38 -27 -77 -113 -84 -186 l-7
-63 218 0 218 0 -7 68 c-10 98 -44 165 -96 192 -50 25 -131 34 -180 19z"/>
<path d="M54458 1491 c-45 -15 -83 -42 -105 -74 -24 -35 -53 -134 -53 -179 l0
-28 215 0 215 0 0 43 c-1 105 -42 191 -105 221 -43 21 -129 29 -167 17z"/>
<path d="M62007 1485 c-76 -26 -119 -89 -137 -196 -5 -35 -10 -67 -10 -71 0
-5 97 -8 215 -8 l215 0 0 48 c0 64 -25 144 -56 181 -16 20 -44 36 -77 46 -62
18 -100 18 -150 0z"/>
<path d="M4663 7453 c-10 -4 -13 -407 -13 -1971 l0 -1967 1790 -1138 c1813
-1153 1839 -1168 1828 -1108 -4 21 -3580 6191 -3588 6190 -3 0 -11 -3 -17 -6z"/>
<path d="M2575 4483 c-946 -1632 -1754 -3027 -1797 -3100 -135 -233 -298 -324
1760 984 l1802 1146 0 1962 c0 1781 -1 1963 -16 1969 -9 3 -19 6 -23 6 -3 0
-780 -1335 -1726 -2967z"/>
<path d="M4650 2772 l0 -397 173 -106 c94 -59 312 -191 482 -294 552 -335 807
-503 1105 -729 221 -168 375 -249 571 -300 195 -50 276 -58 739 -65 239 -5
438 -5 442 -2 4 4 9 17 10 30 3 21 -166 131 -1712 1113 -943 599 -1736 1102
-1762 1118 l-48 30 0 -398z"/>
<path d="M2582 2048 c-964 -612 -1749 -1115 -1745 -1119 22 -20 318 -42 634
-46 352 -6 467 2 564 36 51 18 547 328 1415 886 272 174 584 374 692 444 l198
126 0 393 c0 215 -2 392 -3 392 -2 0 -792 -500 -1755 -1112z"/>
<path d="M3575 1544 c-506 -327 -926 -598 -934 -603 -8 -5 -11 -16 -6 -30 l6
-21 1865 0 1864 0 0 24 c0 21 -123 103 -935 625 -514 331 -936 601 -938 600
-1 0 -416 -268 -922 -595z"/>
</g>
</svg>
